<?xml version="1.0"?>
<svg version="1.1" xmlns="http://www.w3.org/2000/svg" xmlns:xlink="http://www.w3.org/1999/xlink" width="512" height="512">
    <desc iVinci="yes" version="4.6" gridStep="20" showGrid="no" snapToGrid="no" codePlatform="0"/>
    <g id="Layer1" name="Layer 1" opacity="1">
        <g id="Shape1">
            <desc shapeID="1" type="0" basicInfo-basicType="1" basicInfo-roundedRectRadius="12" basicInfo-polygonSides="6" basicInfo-starPoints="5" bounding="rect(-257.429,-257.945,514.858,515.89)" text="" font-familyName="Helvetica" font-pixelSize="20" font-bold="0" font-underline="0" font-alignment="1" strokeStyle="0" markerStart="0" markerEnd="0" shadowEnabled="0" shadowOffsetX="0" shadowOffsetY="2" shadowBlur="4" shadowOpacity="160" blurEnabled="0" blurRadius="4" transform="matrix(1.00146,0,0,1,254.194,255.366)" pers-center="0,0" pers-size="0,0" pers-start="0,0" pers-end="0,0" locked="0" mesh="" flag=""/>
            <path id="shapePath1" d="M-3.61122,-2.5795 L512,-2.5795 L512,513.311 L-3.61122,513.311 L-3.61122,-2.5795 Z" style="stroke:none;fill-rule:evenodd;fill:#000000;fill-opacity:1;"/>
        </g>
        <g id="Shape2">
            <desc shapeID="2" type="0" basicInfo-basicType="0" basicInfo-roundedRectRadius="12" basicInfo-polygonSides="6" basicInfo-starPoints="5" bounding="rect(-245.5,-98.2,491,196.4)" text="" font-familyName="" font-pixelSize="20" font-bold="0" font-underline="0" font-alignment="1" strokeStyle="0" markerStart="0" markerEnd="0" shadowEnabled="0" shadowOffsetX="0" shadowOffsetY="2" shadowBlur="4" shadowOpacity="160" blurEnabled="0" blurRadius="4" transform="matrix(1,0,0,1,256,113.266)" pers-center="0,0" pers-size="0,0" pers-start="0,0" pers-end="0,0" locked="0" mesh="" flag=""/>
            <path id="shapePath2" d="M10.5,15.066 L10.5,28.503 L106.073,28.503 L106.073,15.066 L10.5,15.066 M119.613,15.066 L119.613,28.503 L255.808,28.503 C255.808,28.503 241.897,15.066 223.471,15.066 L119.613,15.066 M282.525,15.066 L282.525,28.503 L364.921,28.503 L360.03,15.066 L282.525,15.066 M423.994,15.066 L419.103,28.503 L500.751,28.503 L500.751,15.066 L423.994,15.066 M10.5,41.1981 L10.5,54.635 L106.073,54.635 L106.073,41.1981 L10.5,41.1981 M119.613,41.217 L119.613,54.635 L271.612,54.635 C271.612,54.635 269.837,44.2931 266.74,41.217 L119.613,41.217 M282.525,41.217 L282.525,54.635 L373.955,54.635 L369.429,41.217 L282.525,41.217 M414.213,41.217 L409.688,54.635 L500.752,54.635 L500.752,41.217 L414.213,41.217 M37.965,67.3301 L37.965,80.787 L79.355,80.787 L79.355,67.3301 L37.965,67.3301 M147.079,67.3301 L147.079,80.787 L188.469,80.787 L188.469,67.3301 L147.079,67.3301 M228.727,67.3301 L228.727,80.787 L270.117,80.787 C270.117,80.787 272.745,73.6811 272.745,67.3301 L228.727,67.3301 M309.991,67.3301 L309.991,80.787 L383.373,80.787 L378.481,67.3301 L309.991,67.3301 M405.198,67.3301 L400.289,80.787 L474.035,80.787 L474.035,67.3301 L405.198,67.3301 M37.965,93.481 L37.965,106.919 L79.355,106.919 L79.355,93.481 L37.965,93.481 M147.079,93.481 L147.079,106.919 L252.798,106.919 C252.798,106.919 261.641,100.024 264.46,93.481 L147.079,93.481 M309.991,93.481 L309.991,106.919 L351.381,106.919 L351.381,99.439 L354.008,106.919 L429.826,106.919 L432.644,99.439 L432.644,106.919 L474.035,106.919 L474.035,93.481 L396.338,93.481 L392.214,104.863 L388.071,93.481 L309.991,93.481 M37.965,119.613 L37.965,133.051 L79.355,133.051 L79.355,119.613 L37.965,119.613 M147.079,119.613 L147.079,133.051 L264.459,133.051 C261.64,126.531 252.797,119.613 252.797,119.613 L147.079,119.613 M309.991,119.613 L309.991,133.051 L351.381,133.051 L351.381,119.613 L309.991,119.613 M358.899,119.613 L363.905,133.051 L420.754,133.051 L425.511,119.613 L358.899,119.613 M432.645,119.613 L432.645,133.051 L474.036,133.051 L474.036,119.613 L432.645,119.613 M37.965,145.746 L37.965,159.184 L79.355,159.184 L79.355,145.746 L37.965,145.746 M147.079,145.746 L147.079,159.184 L188.469,159.184 L188.469,145.746 L147.079,145.746 M228.727,145.746 L228.727,159.184 L272.745,159.184 C272.745,152.842 270.117,145.746 270.117,145.746 L228.727,145.746 M309.991,145.746 L309.991,159.184 L351.381,159.184 L351.381,145.746 L309.991,145.746 M368.297,145.746 L373.15,159.184 L411.26,159.184 L416.151,145.746 L368.297,145.746 M432.645,145.746 L432.645,159.184 L474.036,159.184 L474.036,145.746 L432.645,145.746 M11.248,171.877 L11.248,185.334 L106.82,185.334 L106.82,171.877 L11.248,171.877 M119.613,171.877 L119.613,185.334 L266.74,185.334 C269.837,182.254 271.612,171.877 271.612,171.877 L119.613,171.877 M283.273,171.877 L283.273,185.334 L351.38,185.334 L351.38,171.877 L283.273,171.877 M377.715,171.877 L382.701,185.334 L402.092,185.334 L406.772,171.877 L377.715,171.877 M432.645,171.877 L432.645,185.334 L501.5,185.334 L501.5,171.877 L432.645,171.877 M11.248,198.029 L11.248,211.466 L106.82,211.466 L106.82,198.028 L11.248,198.028 L11.248,198.029 M119.613,198.029 L119.613,211.447 L223.471,211.447 C241.897,211.447 255.808,198.029 255.808,198.029 L119.613,198.029 M283.273,198.029 L283.273,211.466 L351.38,211.466 L351.38,198.028 L283.273,198.028 L283.273,198.029 M387.17,198.029 L391.965,211.427 L392.789,211.447 L397.661,198.029 L387.17,198.029 M432.645,198.029 L432.645,211.466 L501.5,211.466 L501.5,198.028 L432.645,198.028 L432.645,198.029 Z" style="stroke:none;fill-rule:nonzero;fill:#ffffff;fill-opacity:1;"/>
        </g>
        <g id="Shape3">
            <desc shapeID="3" type="0" basicInfo-basicType="1" basicInfo-roundedRectRadius="12" basicInfo-polygonSides="6" basicInfo-starPoints="5" bounding="rect(-249.371,-126.672,498.742,253.345)" text="" font-familyName="Helvetica" font-pixelSize="20" font-bold="0" font-underline="0" font-alignment="1" strokeStyle="0" markerStart="0" markerEnd="0" shadowEnabled="0" shadowOffsetX="0" shadowOffsetY="2" shadowBlur="4" shadowOpacity="160" blurEnabled="0" blurRadius="4" transform="matrix(1.03382,0,0,1.01816,254.194,384.338)" pers-center="0,0" pers-size="0,0" pers-start="0,0" pers-end="0,0" locked="0" mesh="" flag=""/>
            <path id="shapePath3" d="M-3.61128,255.366 L512,255.366 L512,513.311 L-3.61128,513.311 L-3.61128,255.366 Z" style="stroke:none;fill-rule:evenodd;fill:#00b851;fill-opacity:1;"/>
        </g>
        <g id="Shape4">
            <desc shapeID="4" type="2" basicInfo-basicType="0" basicInfo-roundedRectRadius="12" basicInfo-polygonSides="6" basicInfo-starPoints="5" bounding="rect(-175.354,-77.9905,350.709,155.981)" text="DB2" font-familyName="Open Sans" font-pixelSize="200" font-bold="1" font-underline="0" font-alignment="1" strokeStyle="0" markerStart="0" markerEnd="0" shadowEnabled="0" shadowOffsetX="0" shadowOffsetY="2" shadowBlur="4" shadowOpacity="160" blurEnabled="0" blurRadius="4" transform="matrix(1,0,0,1,249.058,379.969)" pers-center="0,0" pers-size="0,0" pers-start="0,0" pers-end="0,0" locked="0" mesh="" flag=""/>
            <path id="shapePath4" d="M187.55,383.996 C187.55,407.564 181.007,425.582 167.921,438.049 C154.835,450.516 135.987,456.75 111.378,456.75 L71.4366,456.75 L71.4366,313.977 L115.577,313.977 C138.299,313.977 155.974,320.097 168.605,332.336 C181.235,344.576 187.55,361.796 187.55,383.996 M162.94,384.778 C162.94,350.598 146.957,333.508 114.991,333.508 L94.7764,333.508 L94.7764,437.121 L111.378,437.121 C145.753,437.121 162.94,419.673 162.94,384.778 M218.202,313.977 L260.585,313.977 C280.246,313.977 294.455,316.841 303.212,322.57 C311.968,328.3 316.347,337.349 316.347,349.719 C316.347,358.052 314.198,364.986 309.901,370.52 C305.605,376.054 299.42,379.537 291.347,380.969 L291.347,381.945 C301.373,383.834 308.746,387.561 313.466,393.127 C318.186,398.694 320.546,406.229 320.546,415.735 C320.546,428.56 316.07,438.602 307.118,445.862 C298.166,453.121 285.715,456.75 269.765,456.75 L218.202,456.75 L218.202,313.977 M241.542,372.961 L264.003,372.961 C273.769,372.961 280.898,371.415 285.39,368.322 C289.882,365.23 292.128,359.973 292.128,352.551 C292.128,345.845 289.703,340.995 284.853,338 C280.002,335.005 272.304,333.508 261.757,333.508 L241.542,333.508 L241.542,372.961 M241.542,391.906 L241.542,437.121 L266.347,437.121 C276.112,437.121 283.485,435.25 288.466,431.506 C293.446,427.763 295.937,421.854 295.937,413.781 C295.937,406.36 293.398,400.858 288.319,397.278 C283.241,393.697 275.526,391.906 265.175,391.906 L241.542,391.906 M436.952,456.75 L340.175,456.75 L340.175,439.367 L376.991,402.356 C387.864,391.223 395.074,383.329 398.622,378.674 C402.17,374.019 404.758,369.641 406.386,365.539 C408.013,361.438 408.827,357.043 408.827,352.356 C408.827,345.91 406.89,340.832 403.017,337.121 C399.143,333.41 393.788,331.555 386.952,331.555 C381.483,331.555 376.194,332.564 371.083,334.582 C365.972,336.6 360.064,340.246 353.358,345.52 L340.956,330.383 C348.899,323.677 356.614,318.925 364.101,316.125 C371.588,313.326 379.563,311.926 388.026,311.926 C401.308,311.926 411.952,315.393 419.96,322.326 C427.968,329.26 431.972,338.586 431.972,350.305 C431.972,356.75 430.816,362.87 428.505,368.664 C426.194,374.459 422.646,380.432 417.86,386.584 C413.075,392.737 405.116,401.054 393.983,411.535 L369.179,435.559 L369.179,436.535 L436.952,436.535 L436.952,456.75 Z" style="stroke:none;fill-rule:nonzero;fill:#ffffff;fill-opacity:1;"/>
        </g>
    </g>
</svg>
