<?xml version="1.0"?>
<svg version="1.1" xmlns="http://www.w3.org/2000/svg" xmlns:xlink="http://www.w3.org/1999/xlink" width="91.24" height="42.97">
    <g id="Layer1" name="Layer 1" opacity="1">
        <g id="Shape1">
            <path id="shapePath1" d="M45.5043,3.45453 L25.764,11.9104 L13.4507,11.9104 L13.4507,15.3599 L7.28281,15.3599 L7.28281,38.5455 L83.7172,38.5455 L83.7172,15.3599 L77.5525,15.3599 L77.5525,11.9104 L65.2435,11.9104 L45.5043,3.45453 Z" style="stroke:none;fill-rule:nonzero;fill:#004990;fill-opacity:1;"/>
        </g>
        <g id="Shape2">
            <path id="shapePath2" d="M63.7316,18.0768 L63.7308,21.825 L66.1558,21.8293 L66.6611,18.0778 L63.7319,18.077 L63.7316,18.0768 Z" style="stroke:none;fill-rule:nonzero;fill:#ffffff;fill-opacity:1;"/>
        </g>
        <g id="Shape3">
            <path id="shapePath3" d="M76.8433,21.3246 C76.9996,21.3246 77.1409,21.3129 77.1409,21.1223 C77.1409,20.9724 77.0018,20.9446 76.8733,20.9446 L76.6206,20.9446 L76.6206,21.3246 L76.8433,21.3246 M76.6206,22.012 L76.4354,22.012 L76.4354,20.7872 L76.9022,20.7872 C77.1902,20.7872 77.3337,20.8942 77.3337,21.1362 C77.3337,21.3557 77.1977,21.451 77.0178,21.4734 L77.3658,22.012 L77.1581,22.012 L76.8347,21.4809 L76.6206,21.4809 L76.6206,22.012 M76.8455,22.2861 C77.3262,22.2861 77.7052,21.9103 77.7052,21.3974 C77.7052,20.8942 77.3262,20.5152 76.8455,20.5152 C76.3583,20.5152 75.9793,20.8942 75.9793,21.3974 C75.9793,21.9103 76.3583,22.2861 76.8455,22.2861 M75.7652,21.3974 C75.7652,20.7872 76.2598,20.3375 76.8455,20.3375 C77.4247,20.3375 77.9204,20.7872 77.9204,21.3974 C77.9204,22.012 77.4247,22.4638 76.8455,22.4638 C76.2598,22.4638 75.7652,22.012 75.7652,21.3974 Z" style="stroke:none;fill-rule:nonzero;fill:#ffffff;fill-opacity:1;"/>
        </g>
        <g id="Shape4">
            <path id="shapePath4" d="M19.4754,30.85 L19.4754,18.0763 L15.9819,18.0763 L15.9819,33.8917 L24.881,33.8917 L24.881,30.85 L19.4754,30.85 Z" style="stroke:none;fill-rule:nonzero;fill:#ffffff;fill-opacity:1;"/>
        </g>
        <g id="Shape5">
            <path id="shapePath5" d="M54.6439,33.8922 L62.9595,33.8922 L62.9595,30.8463 L58.1545,30.8463 L58.1545,28.8613 L62.9595,28.8613 L62.9595,25.9289 L58.1545,25.9289 L58.1545,23.9332 L62.9595,23.9332 L62.9595,20.8744 L54.6439,20.8744 L54.6439,20.8894 L54.6439,33.8922 Z" style="stroke:none;fill-rule:nonzero;fill:#ffffff;fill-opacity:1;"/>
        </g>
        <g id="Shape6">
            <path id="shapePath6" d="M32.8656,23.9335 L29.7929,23.9335 L29.7929,30.8337 L32.8656,30.8337 L32.8656,23.9335 M36.3655,32.2298 C36.3655,33.1474 35.6214,33.8925 34.7028,33.8925 L27.9546,33.8925 C27.0371,33.8925 26.293,33.1474 26.293,32.2298 L26.293,22.5374 C26.293,21.6188 27.0371,20.8748 27.9546,20.8748 L34.7028,20.8748 C35.6214,20.8748 36.3655,21.6188 36.3655,22.5374 L36.3655,32.2298 Z" style="stroke:none;fill-rule:nonzero;fill:#ffffff;fill-opacity:1;"/>
        </g>
        <g id="Shape7">
            <path id="shapePath7" d="M49.1461,20.8751 L49.1461,30.8501 L47.037,30.8501 L47.037,20.8751 L43.9643,20.8751 L43.9643,30.8501 L41.8551,30.8501 L41.8551,20.8751 L38.3553,20.8751 L38.3553,32.2291 C38.3553,33.1477 39.0993,33.8928 40.0179,33.8928 L44.1549,33.8928 C44.8518,33.8928 45.5006,33.4111 45.5006,32.7141 C45.5006,33.4111 46.1494,33.8928 46.8464,33.8928 L50.9844,33.8928 C51.9019,33.8928 52.646,33.1477 52.646,32.2291 L52.646,20.8751 L49.1461,20.8751 Z" style="stroke:none;fill-rule:nonzero;fill:#ffffff;fill-opacity:1;"/>
        </g>
        <g id="Shape8">
            <path id="shapePath8" d="M75.227,28.973 L75.2278,28.9738 L75.2064,28.9289 C75.1926,28.901 75.1786,28.8742 75.1647,28.8465 L75.1433,28.8037 C74.5898,27.6934 73.35,26.7663 71.3543,25.9676 L71.2837,25.9408 C70.8886,25.7856 69.6863,25.3156 69.5525,24.5512 C69.5161,24.337 69.6028,24.0009 69.8415,23.7964 C70.0931,23.5405 70.4786,23.4088 70.9871,23.4088 C71.8008,23.4088 72.7258,23.7418 73.2055,23.9398 C74.2151,24.3585 75.1005,24.7321 75.109,24.7375 L75.1968,24.7739 L75.1968,21.9324 L75.168,21.9142 C75.1487,21.9013 73.2398,20.6979 71.3116,20.4217 C71.0899,20.4024 70.8705,20.3939 70.6596,20.3939 C68.8845,20.3939 67.5397,21.0384 66.664,22.3103 C65.9284,23.3552 65.8471,25.0094 66.4723,26.2438 C67.2764,27.6388 68.5654,28.2212 69.8127,28.7855 C70.3266,29.0167 70.8587,29.2587 71.3565,29.5542 L71.3617,29.5576 C71.9248,29.8959 72.2117,30.413 72.0929,30.8723 C71.9698,31.3488 71.4248,31.6689 70.7364,31.6689 C70.6422,31.6689 70.5469,31.6637 70.4538,31.6507 L70.4205,31.6464 C69.0962,31.4623 66.411,30.4623 66.3843,30.4516 L66.2986,30.4195 L66.2986,33.535 L66.3426,33.55 C66.3672,33.5586 68.9667,34.4194 71.2739,34.4194 L71.2747,34.4194 C72.5338,34.4194 73.4845,34.1656 74.0991,33.6667 C74.114,33.656 75.5241,32.5222 75.5862,30.594 C75.6033,30.0608 75.4823,29.5148 75.2264,28.9731 Z" style="stroke:none;fill-rule:nonzero;fill:#ffffff;fill-opacity:1;"/>
        </g>
    </g>
</svg>
