<svg version="1.1" xmlns="http://www.w3.org/2000/svg" xmlns:xlink="http://www.w3.org/1999/xlink" width="320" height="320"  xml:space="preserve" id="canvas1">
	<rect x='0' y='0' width='320' height='320' fill='#fff'/>
  <g transform="translate(16, 90) scale(0.9, 0.9)" >
    <path stroke="none" fill="rgb(68, 158, 224)" d="M 317.52,145.95 L 285.07,107.08 317.56,68.14 C 321.66,63 320.49,55.83 314.82,52.02 309.14,48.18 301.17,49.16 296.78,54.15 L 296.78,54.14 268.83,87.59 240.9,54.14 240.9,54.15 C 236.55,49.16 228.53,48.18 222.87,52.02 217.21,55.84 216.03,63 220.16,68.14 L 220.15,68.14 252.58,107.08 220.15,145.95 220.16,145.95 C 216.03,151.1 217.21,158.25 222.87,162.08 228.53,165.9 236.55,164.93 240.9,159.94 L 268.83,126.53 296.74,159.94 C 301.14,164.93 309.1,165.9 314.78,162.08 320.45,158.25 321.63,151.1 317.52,145.95 Z M 165.18,142.12 C 145.4,142.12 129.36,126.47 129.36,107.16 129.36,87.86 145.4,72.21 165.18,72.21 184.96,72.21 200.99,87.86 200.99,107.16 200.99,126.47 184.96,142.12 165.18,142.12 Z M 59.69,142.12 C 39.91,142.12 23.86,126.48 23.86,107.17 23.86,87.86 39.91,72.21 59.69,72.21 79.47,72.21 95.49,87.86 95.49,107.16 95.49,126.47 79.47,142.12 59.69,142.12 Z M 165.18,48.87 C 142.34,48.87 122.45,61.42 112.44,79.84 102.43,61.42 82.56,48.87 59.69,48.87 46.27,48.87 33.87,53.21 23.86,60.53 L 23.86,11.42 C 23.74,5.08 18.44,-0 11.92,-0 5.4,-0 0.15,5.08 0,11.43 L 0,108.14 0.01,108.14 C 0.54,139.88 27.04,165.46 59.7,165.46 82.56,165.46 102.43,152.9 112.44,134.5 122.46,152.9 142.34,165.46 165.18,165.46 198.14,165.46 224.88,139.37 224.88,107.16 224.88,74.97 198.14,48.87 165.18,48.87" />
  </g>
</svg>
