<?xml version="1.0" ?><svg height="100" id="svg2" version="1.1" width="100" xmlns="http://www.w3.org/2000/svg" xmlns:cc="http://creativecommons.org/ns#" xmlns:dc="http://purl.org/dc/elements/1.1/" xmlns:inkscape="http://www.inkscape.org/namespaces/inkscape" xmlns:rdf="http://www.w3.org/1999/02/22-rdf-syntax-ns#" xmlns:sodipodi="http://sodipodi.sourceforge.net/DTD/sodipodi-0.dtd" xmlns:svg="http://www.w3.org/2000/svg"><defs id="defs4"><clipPath clipPathUnits="userSpaceOnUse" id="clipPath3789"><path d="m 674.28571,549.50507 a 261.42856,262.85715 0 1 1 -522.85712,0 261.42856,262.85715 0 1 1 522.85712,0 z" id="path3791" style="fill:#f29f4a;fill-opacity:1;stroke:none" transform="matrix(0.18360657,0,0,0.18260869,190.37192,664.37679)"/></clipPath></defs><g id="layer1" transform="translate(0,-952.36218)"><g id="g3081" transform="translate(158.21429,-2.142835)"><text id="text3306" style="font-size:40px;font-style:normal;font-weight:normal;line-height:125%;letter-spacing:0px;word-spacing:0px;fill:#000000;fill-opacity:1;stroke:none;font-family:Sans" transform="translate(0,952.36218)" x="16.071428" xml:space="preserve" y="49.285713"><tspan id="tspan3308" x="16.071428" y="49.285713"/></text><text id="text3306-1" style="font-size:40px;font-style:normal;font-weight:normal;line-height:125%;letter-spacing:0px;word-spacing:0px;fill:#000000;fill-opacity:1;stroke:none;font-family:Sans" x="-142.14285" xml:space="preserve" y="1003.7907"><tspan id="tspan3308-9" x="-142.14285" y="1003.7907"/></text><text id="text3306-5" style="font-size:40px;font-style:normal;font-weight:normal;line-height:125%;letter-spacing:0px;word-spacing:0px;fill:#000000;fill-opacity:1;stroke:none;font-family:Sans" x="-150.14774" xml:space="preserve" y="1033.1833"><tspan id="tspan3308-4" x="-150.14774" y="1033.1833"/></text><text id="text3306-8" style="font-size:40px;font-style:normal;font-weight:normal;line-height:125%;letter-spacing:0px;word-spacing:0px;fill:#000000;fill-opacity:1;stroke:none;font-family:Sans" x="-285.35715" xml:space="preserve" y="996.29077"><tspan id="tspan3308-6" x="-285.35715" y="996.29077"/></text><path d="m -108.21429,956.50503 c -26.50967,0 -48,21.49033 -48,47.99997 0,26.5096 21.49033,48 48,48 26.509674,0 48.000004,-21.4904 48.000004,-48 l -48.000004,-47.99997 z" id="path2985-5" style="fill:#00a9ed;fill-opacity:1;stroke:none"/><path d="m -108.21429,956.50503 0,47.99997 48.000004,0 -48.000004,-47.99997 z" id="rect3038-1" style="opacity:0.4;fill:#f8f6de;fill-opacity:1;stroke:none"/><path d="M 58.5 56.25 C 57.316658 56.250018 56.220826 56.475018 55.1875 56.875 C 54.154161 57.275017 53.235412 57.841683 52.46875 58.625 C 51.70208 59.391681 51.106247 60.352097 50.65625 61.46875 C 50.222915 62.585428 49.999999 63.86251 50 65.3125 C 49.999999 66.762507 50.179165 68.039589 50.5625 69.15625 C 50.945831 70.27292 51.50208 71.216669 52.21875 72 C 52.935412 72.766668 53.810411 73.350001 54.84375 73.75 C 55.877076 74.15 57.043742 74.375 58.34375 74.375 C 59.010406 74.375 59.635406 74.333333 60.21875 74.25 C 60.802071 74.183333 61.345821 74.085417 61.8125 73.96875 C 62.279153 73.835417 62.666653 73.695834 63 73.5625 C 63.349985 73.429167 63.612485 73.289584 63.8125 73.15625 L 62.96875 70.59375 C 62.585403 70.793753 62.043737 71.01667 61.34375 71.25 C 60.643738 71.466669 59.741656 71.562502 58.625 71.5625 C 57.691658 71.562502 56.885408 71.425003 56.21875 71.125 C 55.552076 70.808337 54.995827 70.362504 54.5625 69.8125 C 54.129161 69.245838 53.810411 68.579172 53.59375 67.8125 C 53.393745 67.04584 53.312495 66.197924 53.3125 65.28125 C 53.312495 64.247926 53.420828 63.345844 53.6875 62.5625 C 53.954161 61.779179 54.345828 61.14168 54.8125 60.625 C 55.295827 60.108347 55.849993 59.718764 56.5 59.46875 C 57.149991 59.202098 57.843741 59.062515 58.59375 59.0625 C 59.460406 59.062515 60.266655 59.172931 61 59.40625 C 61.749987 59.622931 62.318736 59.875014 62.71875 60.125 L 63.65625 57.53125 C 63.539568 57.4646 63.345819 57.368767 63.0625 57.21875 C 62.779152 57.068767 62.402069 56.9146 61.96875 56.78125 C 61.535404 56.647934 61.020821 56.537517 60.4375 56.4375 C 59.854155 56.320851 59.216656 56.250018 58.5 56.25 z M 70.65625 60.59375 C 69.139579 60.593763 67.94583 60.925013 67.0625 61.625 C 66.179165 62.308345 65.749999 63.268761 65.75 64.46875 C 65.749999 65.085426 65.847915 65.597925 66.03125 66.03125 C 66.231248 66.447924 66.479165 66.825007 66.8125 67.125 C 67.145831 67.425007 67.549997 67.672923 68 67.90625 C 68.466663 68.122923 68.981246 68.331256 69.53125 68.53125 C 70.431244 68.864588 71.05416 69.185421 71.4375 69.46875 C 71.837493 69.752088 72.031243 70.097921 72.03125 70.53125 C 72.031243 70.99792 71.866659 71.331253 71.5 71.53125 C 71.133327 71.714586 70.549994 71.812502 69.75 71.8125 C 68.949996 71.812502 68.22708 71.729169 67.59375 71.5625 C 66.977081 71.395836 66.449998 71.214586 66 71.03125 L 65.46875 73.5625 C 65.752082 73.679167 66.237498 73.816667 66.9375 74 C 67.637497 74.2 68.568746 74.3125 69.71875 74.3125 C 71.43541 74.3125 72.739575 74.008333 73.65625 73.375 C 74.589573 72.725001 75.062489 71.750002 75.0625 70.5 C 75.062489 69.916671 74.99374 69.416671 74.84375 69 C 74.69374 68.583339 74.458323 68.222922 74.125 67.90625 C 73.808324 67.572923 73.406241 67.281257 72.90625 67.03125 C 72.406242 66.764591 71.779159 66.516674 71.0625 66.25 C 70.629161 66.100008 70.268744 65.945841 69.96875 65.8125 C 69.668745 65.662508 69.433328 65.508342 69.25 65.375 C 69.066662 65.225009 68.927079 65.072926 68.84375 64.90625 C 68.777079 64.739593 68.749996 64.560426 68.75 64.34375 C 68.749996 63.910427 68.929162 63.57501 69.3125 63.375 C 69.695828 63.158344 70.195828 63.062511 70.8125 63.0625 C 71.495826 63.062511 72.108326 63.116678 72.625 63.25 C 73.141658 63.366677 73.572908 63.50626 73.90625 63.65625 L 74.4375 61.21875 C 74.08749 61.08543 73.574991 60.945846 72.875 60.8125 C 72.174992 60.662513 71.42291 60.593763 70.65625 60.59375 z M 76.28125 60.90625 C 76.997916 63.456261 77.789581 65.860425 78.65625 68.09375 C 79.53958 70.31042 80.416662 72.283335 81.25 74 L 83.84375 74 C 84.677075 72.283335 85.539574 70.31042 86.40625 68.09375 C 87.289572 65.860425 88.064571 63.456261 88.78125 60.90625 L 85.65625 60.90625 C 85.472907 61.639596 85.281241 62.431262 85.03125 63.28125 C 84.781241 64.114593 84.502075 64.962509 84.21875 65.8125 C 83.952075 66.645841 83.689576 67.450007 83.40625 68.25 C 83.12291 69.033338 82.843743 69.741671 82.59375 70.375 C 82.343744 69.741671 82.081244 69.033338 81.78125 68.25 C 81.497911 67.450007 81.189578 66.645841 80.90625 65.8125 C 80.639579 64.962509 80.406246 64.114593 80.15625 63.28125 C 79.922913 62.431262 79.71458 61.639596 79.53125 60.90625 L 76.28125 60.90625 z " id="text3812-8" style="font-size:25px;font-style:normal;font-variant:normal;font-weight:500;font-stretch:normal;line-height:125%;letter-spacing:0px;word-spacing:0px;fill:#f8f6de;fill-opacity:1;stroke:none;font-family:Ubuntu;-inkscape-font-specification:Ubuntu Medium" transform="translate(-158.21429,954.50501)"/></g></g></svg>