<?xml version="1.0"?>
<svg version="1.1" xmlns="http://www.w3.org/2000/svg" xmlns:xlink="http://www.w3.org/1999/xlink" width="901" height="901">
		<desc iVinci="yes" version="4.6" gridStep="20" showGrid="no" snapToGrid="no" codePlatform="0"/>
		<path d='M0,0h901v901h-901v-901' fill='#1a75cf'/>
		<path d="M450.462,270.3 C462.417,270.3 472.237,264.322 473.518,256.21 L485.473,121.714 C485.473,108.478 470.102,97.8041 450.462,97.8041 C430.821,97.8041 415.45,108.478 415.45,121.714 L427.406,256.21 C428.686,264.322 438.507,270.3 450.462,270.3 M377.877,312.57 C383.855,301.895 383.428,290.367 377.023,285.244 L266.865,207.535 C255.337,201.131 238.258,209.243 228.438,225.895 C218.618,242.974 220.326,261.76 231.854,268.592 L353.967,325.379 C361.652,327.94 371.9,322.817 377.877,312.143 L377.877,312.57 M523.047,312.143 C529.024,322.817 539.271,328.367 546.957,325.379 L669.07,268.592 C680.598,261.76 682.306,242.974 672.913,225.895 C663.093,209.243 645.587,201.131 634.059,207.535 L523.901,285.244 C517.496,290.367 517.069,301.895 523.047,312.57 L523.047,312.143 M450.462,438.098 C462.417,438.098 472.237,444.503 473.518,452.188 L485.473,586.684 C485.473,599.92 470.102,610.594 450.462,610.594 C430.821,610.594 415.45,599.92 415.45,586.684 L427.406,452.188 C428.686,444.503 438.507,438.098 450.462,438.098 M523.047,396.255 C529.024,385.581 539.271,380.458 546.957,383.019 L669.07,440.233 C680.598,446.638 682.306,465.424 672.913,482.503 C663.093,499.582 645.587,507.267 634.059,500.863 L523.901,423.582 C517.496,418.458 517.069,406.503 523.047,396.255 M377.877,396.255 C383.855,406.503 383.428,418.458 377.023,423.582 L266.865,500.863 C255.337,507.267 238.258,499.582 228.438,482.503 C218.618,465.424 220.326,446.638 231.854,440.233 L353.967,383.446 C361.652,380.458 371.9,385.581 377.877,396.255 Z" style="fill-rule:evenodd;fill:#fdbb30;"/>
		<path d="M624,755.534 C624,757.534 624,759.034 623.5,760.534 C621.5,767.034 614.5,772.534 606.5,772.534 C599.5,772.534 594,768.534 594,760.034 C594,747.534 608,744.034 624,744.034 L624,755.534 M649,733.034 C649,712.034 640,693.534 609.5,693.534 C594,693.534 581.5,698.034 574.5,702.034 L579.5,719.034 C586,715.034 596,711.534 605,711.534 C620.5,711.534 623,720.534 623,726.034 L623,727.534 C589.5,727.534 568,739.034 568,763.034 C568,777.534 579,791.034 598,791.034 C609.5,791.034 619,786.534 625,779.034 L625.5,779.034 C625.5,779.034 629.5,795.034 650.5,789.034 C649.5,782.034 649,775.034 649,766.534 L649,733.034 M123,664.534 C123,664.534 145,755.034 148.5,769.534 C152.5,787.034 160,793.034 181.5,789.034 L195,733.034 C198.5,719.034 201,709.034 203,695.034 L203.5,695.034 C205,709.034 207.5,719.034 210.5,733.034 C210.5,733.034 216,758.534 219,771.534 C221.5,785.034 229.5,793.534 250.5,789.034 L283.5,664.534 L257,664.534 L245.5,718.534 C242.5,734.034 240,746.034 238,760.534 L237.5,760.534 C235.5,746.534 233,734.534 230,719.534 L218.5,664.534 L191,664.534 L178.5,718.034 C174.5,734.034 171.5,747.534 169.5,761.034 L169,761.034 C167,748.034 164,731.534 161,716.034 C161,716.034 153.5,678.034 151,664.534 L123,664.534 M333.5,755.534 C333.5,757.534 333.5,759.034 333,760.534 C331,767.034 324.5,772.534 316,772.534 C309,772.534 303.5,768.534 303.5,760.034 C303.5,747.534 317.5,744.034 333.5,744.034 L333.5,755.534 M359,733.034 C359,712.034 350,693.534 319,693.534 C303.5,693.534 291,698.034 284.5,702.034 L289.5,719.034 C295.5,715.034 305.5,711.534 314.5,711.534 C330.5,711.534 333,720.534 333,726.034 L333,727.534 C299,727.534 277.5,739.034 277.5,763.034 C277.5,777.534 288.5,791.034 307.5,791.034 C319,791.034 329,786.534 334.5,779.034 L335,779.034 C335,779.034 339,795.034 360.5,789.034 C359,782.034 359,775.034 359,766.534 L359,733.034 M401,762.534 L401,664.534 L375.5,664.534 L375.5,789.034 L401,789.034 L401,762.534 M731,664.534 C731,676.534 731,756.534 731,756.534 C731,769.034 733.5,778.034 738.5,783.534 C743,788.034 750.5,791.034 759.5,791.034 C766.5,791.034 774,789.534 777.5,788.534 L777,768.534 C774.5,769.034 771.5,770.034 767.5,770.034 C759,770.034 756,764.034 756,753.034 L756,718.034 L778,718.034 L778,694.034 L756,694.034 L756,664.534 L731,664.534 M666,695.534 L666,789.034 L692,789.034 L692,741.034 C692,738.534 692.5,736.534 692.5,734.034 C694.5,724.034 702.5,718.034 713.5,718.034 C716.5,718.034 718.5,718.034 721,718.534 L721,694.034 C719,693.534 717.5,693.534 715,693.534 C705.5,693.534 694.5,699.534 689.5,713.034 L689,713.034 L689,695.534 L666,695.534 M418.5,695.534 L418.5,789.034 L444,789.034 L444,734.034 C444,731.534 444.5,729.034 445,726.534 C447.5,721.034 452.5,714.534 460.5,714.534 C471,714.534 475.5,723.034 475.5,735.534 L475.5,789.034 L501,789.034 L501,733.534 C501,731.034 501.5,728.034 502,726.034 C504,719.534 509.5,714.534 517.5,714.534 C527.5,714.534 532.5,723.034 532.5,738.034 C532.5,738.034 532.5,777.034 532.5,789.034 L558,789.034 L558,734.034 C558,705.034 543.5,693.534 526.5,693.534 C519.5,693.534 513.5,695.534 508,698.534 C504,701.034 500,705.034 496.5,710.034 L496,710.034 C492,700.034 482.5,693.534 470.5,693.534 C454.5,693.534 447.5,701.534 443,708.034 L442.5,708.034 L442.5,695.534 L418.5,695.534 Z" style="fill-rule:evenodd;fill:#ffffff;"/>
</svg>
