<?xml version="1.0" encoding="UTF-8"?>
<!DOCTYPE svg PUBLIC "-//W3C//DTD SVG 1.1//EN" "http://www.w3.org/Graphics/SVG/1.1/DTD/svg11.dtd">
<svg version="1.1" xmlns="http://www.w3.org/2000/svg" xmlns:xlink="http://www.w3.org/1999/xlink" width="200" height="89"  xml:space="preserve">
	<path stroke="none" fill="rgb(231, 110, 78)" d="M 4.34,55.16 L 4.34,46.03 13.3,46.03 13.3,42.4 4.34,42.4 4.34,37.32 14.72,37.32 14.72,33.68 0,33.68 0,55.16 4.34,55.16 Z M 22.49,52.6 C 24.38,54.55 26.92,55.53 30.11,55.53 33.27,55.53 35.79,54.55 37.67,52.59 39.55,50.63 40.5,47.92 40.5,44.45 40.5,40.96 39.55,38.23 37.65,36.26 35.75,34.3 33.22,33.32 30.05,33.32 28.3,33.32 26.76,33.6 25.42,34.17 24.42,34.59 23.49,35.23 22.65,36.1 21.8,36.97 21.14,37.95 20.65,39.05 19.99,40.53 19.67,42.37 19.67,44.55 19.67,47.97 20.61,50.65 22.49,52.6 Z M 25.78,38.86 C 26.87,37.64 28.31,37.02 30.1,37.02 31.88,37.02 33.32,37.63 34.4,38.84 35.47,40.05 36.01,41.89 36.01,44.35 36.01,46.84 35.46,48.71 34.35,49.95 33.24,51.2 31.83,51.82 30.1,51.82 28.37,51.82 26.94,51.19 25.82,49.94 24.7,48.68 24.13,46.84 24.13,44.41 24.13,41.94 24.68,40.09 25.78,38.86 Z M 50.48,55.16 L 50.48,46.19 51.36,46.19 C 52.36,46.19 53.08,46.27 53.54,46.44 54,46.6 54.44,46.9 54.85,47.33 55.26,47.76 56.02,48.82 57.13,50.49 L 60.27,55.16 65.45,55.16 62.83,50.97 C 61.79,49.3 60.97,48.14 60.36,47.48 59.75,46.83 58.98,46.23 58.04,45.68 59.92,45.41 61.34,44.75 62.29,43.7 63.24,42.65 63.71,41.32 63.71,39.71 63.71,38.44 63.4,37.31 62.77,36.32 62.15,35.34 61.31,34.65 60.27,34.26 59.23,33.88 57.57,33.68 55.27,33.68 L 46.15,33.68 46.15,55.16 50.48,55.16 Z M 50.48,37.32 L 53.87,37.32 C 55.62,37.32 56.68,37.34 57.03,37.39 57.73,37.51 58.28,37.79 58.66,38.23 59.05,38.68 59.24,39.26 59.24,39.98 59.24,40.63 59.09,41.17 58.8,41.59 58.51,42.02 58.1,42.33 57.59,42.5 57.07,42.68 55.77,42.77 53.69,42.77 L 50.48,42.77 50.48,37.32 Z M 86.38,55.16 L 86.38,51.54 74.38,51.54 74.38,45.7 85.16,45.7 85.16,42.08 74.38,42.08 74.38,37.32 85.97,37.32 85.97,33.68 70.05,33.68 70.05,55.16 86.38,55.16 Z M 103.48,53.66 C 104.93,54.91 107.02,55.54 109.73,55.54 111.6,55.54 113.16,55.28 114.41,54.76 115.66,54.23 116.62,53.44 117.31,52.36 117.99,51.29 118.33,50.13 118.33,48.9 118.33,47.55 118.05,46.41 117.48,45.48 116.9,44.56 116.11,43.83 115.1,43.3 114.09,42.77 112.53,42.25 110.42,41.76 108.31,41.26 106.99,40.78 106.44,40.32 106.01,39.96 105.79,39.52 105.79,39.02 105.79,38.46 106.02,38.02 106.48,37.68 107.2,37.17 108.18,36.91 109.44,36.91 110.66,36.91 111.58,37.15 112.19,37.63 112.8,38.12 113.2,38.91 113.38,40.01 L 117.72,39.82 C 117.65,37.85 116.93,36.27 115.57,35.09 114.21,33.91 112.18,33.32 109.49,33.32 107.83,33.32 106.43,33.57 105.26,34.07 104.09,34.56 103.2,35.29 102.58,36.24 101.96,37.19 101.65,38.22 101.65,39.31 101.65,41.01 102.31,42.45 103.63,43.63 104.56,44.47 106.19,45.18 108.52,45.75 110.33,46.2 111.48,46.52 111.99,46.69 112.73,46.96 113.25,47.27 113.55,47.62 113.85,47.98 114,48.41 114,48.92 114,49.71 113.64,50.4 112.94,50.99 112.23,51.58 111.17,51.88 109.78,51.88 108.46,51.88 107.41,51.55 106.64,50.88 105.86,50.22 105.34,49.18 105.09,47.76 L 100.87,48.17 C 101.16,50.57 102.02,52.4 103.48,53.66 Z M 140.56,55.16 L 140.56,51.54 128.57,51.54 128.57,45.7 139.35,45.7 139.35,42.08 128.57,42.08 128.57,37.32 140.15,37.32 140.15,33.68 124.23,33.68 124.23,55.16 140.56,55.16 Z M 162.82,55.16 L 162.82,51.54 150.83,51.54 150.83,45.7 161.61,45.7 161.61,42.08 150.83,42.08 150.83,37.32 162.41,37.32 162.41,33.68 146.49,33.68 146.49,55.16 162.82,55.16 Z M 199.97,45 L 95.97,89 95.97,-0 199.97,45 Z M 199.97,45" />
</svg>
