<?xml version="1.0"?>
<svg version="1.1" xmlns="http://www.w3.org/2000/svg" xmlns:xlink="http://www.w3.org/1999/xlink" width="256" height="256">
	<rect x='0' y='0' width='256' height='256' fill='#bec400'/>
  <path fill='#fff' d="M211.765,113.655 C209.637,113.655 207.541,113.946 205.553,114.429 C197.734,83.4574 171.84,59.7136 139.768,54.9735 C139.288,49.5682 141.353,41.087 154.876,32.9146 L154.475,32.1197 C154.475,32.1197 131.827,39.2861 126.706,53.426 C126.93,49.0094 125.322,42.3767 115.488,37.6582 C115.488,37.6582 114.711,37.9237 115.105,38.2792 C117.057,40.081 123.272,46.0926 120.632,54.4614 C86.5321,57.5598 58.6216,82.07 50.4415,114.43 C48.4572,113.946 46.3847,113.656 44.23,113.656 C29.9197,113.656 18.2683,125.279 18.2683,139.634 C18.2683,153.956 29.9188,165.602 44.23,165.602 C47.5827,165.602 50.7771,164.934 53.7155,163.785 C55.9549,169.35 58.7808,174.627 62.1516,179.48 L83.7979,164.886 L83.5185,164.712 C77.8174,157.385 74.3324,146.601 73.7477,135.868 C73.1006,124.027 75.9905,112.266 83.5497,105.354 C99.141,92.0848 116.109,98.1328 126.743,110.852 L129.582,110.852 C140.223,98.3828 157.001,92.5891 172.462,105.72 C179.928,112.582 182.841,124.142 182.275,135.825 C181.766,146.662 178.254,157.618 172.532,164.994 L193.872,179.48 C197.221,174.613 200.065,169.35 202.288,163.785 C205.223,164.933 208.415,165.602 211.764,165.602 C226.111,165.602 237.732,153.956 237.732,139.62 C237.732,125.278 226.112,113.655 211.765,113.655 M45.1175,144.827 C42.2604,144.827 39.925,142.51 39.925,139.619 C39.925,136.735 42.2604,134.407 45.1175,134.407 C46.2143,134.407 47.2263,134.749 48.0671,135.308 C48.0965,138.065 48.305,140.782 48.625,143.462 C47.6839,144.311 46.4703,144.827 45.1175,144.827 M210.868,144.839 C209.528,144.839 208.307,144.323 207.389,143.502 C207.701,140.807 207.911,138.079 207.945,135.307 C208.784,134.748 209.79,134.406 210.869,134.406 C213.734,134.406 216.081,136.749 216.081,139.633 C216.081,142.528 213.734,144.839 210.868,144.839 Z"/>
</svg>
