<?xml version="1.0" encoding="utf-8"?>
<!-- Generator: Adobe Illustrator 15.1.0, SVG Export Plug-In . SVG Version: 6.00 Build 0)  -->
<!DOCTYPE svg PUBLIC "-//W3C//DTD SVG 1.1//EN" "http://www.w3.org/Graphics/SVG/1.1/DTD/svg11.dtd">
<svg version="1.1" id="Layer_1" xmlns="http://www.w3.org/2000/svg" xmlns:xlink="http://www.w3.org/1999/xlink" x="0px" y="0px"
	 width="206px" height="206px" viewBox="0 0 206 206" enable-background="new 0 0 206 206" xml:space="preserve">
<g>
	<g>
		<path fill="#1FB1DF" d="M193.889,41.03c0.442,5.727,0.442,13.303,0,19.031C193.889,53.718,193.889,47.375,193.889,41.03z"/>
		<path fill="#1FB1DF" d="M183.583,40.765c-0.094-6.256,10.696-6.209,10.306,0.265c0,6.345,0,12.688,0,19.031
			c-0.643,9.05-6.257,13.125-15.065,14.006c-1.497,0-2.993,0-4.494,0c-8.99-0.876-14.625-5.106-15.065-14.537
			c0-4.581,0-9.163,0-13.745c0-0.615,0-1.232,0-1.85c0-0.88,0-1.763,0-2.644c-0.047-0.225,0.105-0.247,0.263-0.263
			c-0.653-6.226,10.328-6.786,10.049-0.528c0.175,6.431-0.354,13.565,0.262,19.56c-0.246,7.777,13.486,7.923,13.479,0.264
			C183.931,54.333,183.405,47.195,183.583,40.765z"/>
		<path fill="#1FB1DF" d="M183.583,40.765c-0.178,6.43,0.348,13.568-0.267,19.561C183.494,53.894,182.969,46.757,183.583,40.765z"/>
		<path fill="#1FB1DF" d="M169.575,40.502c0.614,5.99,0.085,13.127,0.262,19.56C169.222,54.067,169.75,46.933,169.575,40.502z"/>
		<path fill="#1FB1DF" d="M159.264,45.787c0,4.582,0,9.164,0,13.745C158.821,55.567,158.821,49.75,159.264,45.787z"/>
		<path fill="#1FB1DF" d="M158.736,65.875c2.102,3.961-0.403,9.414-6.081,8.193c-2.77-0.594-5.292-4.471-7.928-6.872
			c-2.743-2.497-5.775-4.761-7.929-6.87c-1.47-2.21-1.06,1.5-1.06,3.7c0,2.43,0,5.247,0,6.345c-0.283,2.268-1.524,3.586-3.699,3.961
			c-1.057,0-2.115,0-3.173,0c-2.288-0.265-3.24-1.867-3.7-3.961c0-9.783,0-19.561,0-29.34c0.039-5.607,10.534-5.607,10.572,0
			c0,3.436,0,6.871,0,10.308c1.691-0.862,2.714-2.397,3.965-3.702c1.079-0.858,2.047-1.828,2.907-2.906
			c1.784-1.565,3.458-3.238,5.024-5.023c2.084-4.327,10.22-4.031,10.837,1.323c0.849,7.411-9.244,10.021-11.103,14.272
			C150.128,59.01,156.518,61.691,158.736,65.875z"/>
		<path fill="#1FB1DF" d="M136.799,60.326c-1.83-1.638-0.058,8.033-1.06,10.044c0-1.098,0-3.915,0-6.345
			C135.739,61.826,135.329,58.115,136.799,60.326z"/>
		<path fill="#ACACAB" d="M125.167,41.03c0,9.779,0,19.557,0,29.34C124.728,61.205,124.728,50.194,125.167,41.03z"/>
		<path fill="#ACACAB" d="M123.846,40.765c0.44,5.904,0.44,13.655,0,19.561C123.846,53.803,123.846,47.286,123.846,40.765z"/>
		<path fill="#EB6E12" d="M113.538,40.765c-0.717-6.622,10.866-6.096,10.308,0c0,6.521,0,13.038,0,19.561
			c-0.901,8.788-6.524,12.856-15.595,13.479c-1.145,0-2.291,0-3.435,0c-9.285-0.588-14.958-4.775-15.33-14.273
			c-0.173-0.978,0.338-2.632-0.266-3.172c-0.089,0-0.177,0-0.264,0c-1.229,10.958-6.888,17.181-17.182,17.972
			C56.114,75.534,46.681,59.265,54.066,44.73c2.743-5.403,8.417-9.194,15.332-9.517c11.38-0.525,18.194,7.579,19.823,19.031
			c0.614-3.788,0.089-8.723,0.266-12.951c-0.776-6.934,11.124-6.973,10.308,0c0.178,6.522-0.355,13.744,0.265,19.823
			c0.777,6.43,13.239,6.2,13.216-0.791C113.89,54.333,113.359,47.195,113.538,40.765z M78.382,56.623c0.44-0.54,0.44-2.894,0-3.435
			c-0.172-7.754-8.595-11.153-13.48-6.607c-5.953,5.542-3.124,19.444,5.817,19.03C75.389,65.394,77.806,61.561,78.382,56.623z"/>
		<path fill="#EB6E12" d="M113.538,40.765c-0.179,6.43,0.352,13.568-0.264,19.561C113.452,53.894,112.922,46.757,113.538,40.765z"/>
		<path fill="#EB6E12" d="M99.794,41.293c0.613,6.082,0.087,13.304,0.265,19.823C99.438,55.038,99.972,47.816,99.794,41.293z"/>
		<path fill="#EB6E12" d="M89.486,41.293c-0.177,4.228,0.349,9.163-0.266,12.951C89.394,50.015,88.867,45.083,89.486,41.293z"/>
		<path fill="#EB6E12" d="M89.221,56.359c0.604,0.54,0.093,2.194,0.266,3.172C88.878,58.991,89.389,57.338,89.221,56.359z"/>
		<path fill="#EB6E12" d="M78.382,53.188c0.44,0.542,0.44,2.896,0,3.435C78.382,55.479,78.382,54.333,78.382,53.188z"/>
		<path fill="#EB6E12" d="M54.859,37.331c0.887,4.393-3.29,10.126-5.023,14.007c-4.171,9.337-7.594,17.136-11.628,26.168
			c-1.973,4.412-3.512,9.287-7.137,11.629c-14.984,0.938-3.802-15.569-1.585-21.41c-3.407-6.423-7.871-13.897-11.897-20.88
			c-1.833-3.182-6.41-9.254-1.849-12.687c1.687-1.271,5.428-1.307,7.137,0c5.292,4.048,8.292,15.102,12.686,20.086
			c1.627-2.76,3.091-6.545,4.76-10.308c1.513-3.417,2.768-8.223,5.02-9.779C48.791,31.776,54.153,33.845,54.859,37.331z"/>
	</g>
	<path fill="#383838" d="M44.884,94.57c2.735,1.058,5.414,2.25,8.129,3.361c-1.504,6.303-3.682,12.428-6.259,18.367
		c-0.129,11.852-0.176,23.706-0.202,35.563c-0.123,2.638-0.078,5.283-0.038,7.927c6.701-6.219,11.931-14.007,15.047-22.608
		c1.709-5.032,2.458-10.325,2.958-15.598c-4.97,0.016-9.933-0.191-14.898-0.17c0.1-2.567,0.15-5.136,0.257-7.707
		c4.925-0.004,9.851,0,14.779,0c-0.006-6.396,0.007-12.791-0.006-19.186c2.911-0.027,5.826-0.006,8.74-0.013
		c0,6.452-0.003,12.903,0,19.355c9.022-0.003,18.045,0.003,27.065-0.003c-0.051,2.571-0.102,5.142-0.164,7.714
		c-5.607,0.003-11.219,0-16.831,0.003c0,11.146,0,22.295,0,33.444c-0.024,1.342,0.488,2.959,1.898,3.411
		c2.181,0.409,4.495,0.007,6.464-0.969c0.427-1.098,0.934-2.189,1.177-3.352c0.33-3.458,0.604-6.924,0.931-10.382
		c2.836,0.84,5.652,1.743,8.494,2.576c-0.409,3.522-0.774,7.051-1.211,10.571c-0.51,2.767-1.548,5.813-4.157,7.264
		c-3.123,1.954-6.939,1.426-10.437,1.494c-2.117,0.09-4.217-0.244-6.297-0.568c-1.351-0.467-2.776-1.173-3.465-2.492
		c-0.595-1.14-1.681-2.128-1.605-3.506c-0.421-3.541-0.264-7.107-0.289-10.665c0-8.942,0-17.886,0-26.827
		c-0.604-0.003-1.2-0.003-1.794-0.003c-0.604,7.568-2.067,15.132-5.051,22.14c-3.399,8.396-8.859,15.779-15.031,22.338
		c-2.25-1.601-4.39-3.398-6.586-5.088c-0.035,1.68-0.028,3.357-0.003,5.037c-2.836,0.058-5.675,0.011-8.513,0.025
		c-0.013-11.562,0.016-23.124-0.013-34.687c-1.803,2.104-3.272,4.494-4.944,6.712c-2.185-1.989-4.362-3.983-6.537-5.982
		C34.722,120.754,40.934,107.986,44.884,94.57L44.884,94.57z"/>
	<path fill="#383838" d="M160.698,94.931c2.785-0.072,5.574-0.012,8.365-0.03c0,3.618,0,7.238,0,10.854
		c3.487,0.016,6.978-0.02,10.468,0.016c-0.006,2.356-0.003,4.711-0.003,7.068c-3.568,0.003-7.135-0.003-10.7,0.003
		c0.002,3.434-0.004,6.87,0,10.304c4.355,0.007,8.711-0.016,13.066,0.013c-0.013,2.382-0.003,4.765-0.006,7.146
		c-11.928,0.011-23.853-0.019-35.776,0.017c-0.048-2.445-0.017-4.892-0.017-7.337c4.872,0.004,9.751,0.004,14.625,0
		c0.003-3.383,0.003-6.766,0-10.146c-2.345,0-4.689,0-7.03,0c-0.589,2.662-1.237,5.314-1.857,7.972
		c-2.366-0.508-4.723-1.036-7.081-1.571c1.693-7.084,3.252-14.237,3.793-21.517c2.543,0.05,5.079,0.28,7.622,0.334
		c-0.327,2.564-0.684,5.126-0.976,7.698c1.841,0.002,3.686,0.002,5.529,0C160.708,102.148,160.756,98.539,160.698,94.931
		L160.698,94.931z"/>
	<path fill="#383838" d="M80.321,100.883c1.482-1.886,3.034-3.721,4.582-5.549c4.639,3.601,9.338,7.123,13.983,10.712
		c-1.92,2.081-3.836,4.164-5.715,6.279C88.849,108.553,84.642,104.654,80.321,100.883L80.321,100.883z"/>
	<path fill="#383838" d="M107.546,96.228c12.052,0,24.102,0.038,36.151-0.019c0.066,2.58,0.02,5.161,0.029,7.745
		c-3.493-0.003-6.983-0.019-10.475,0.009c0.025,2.641,0.007,5.284,0.011,7.925c3.437,0.013,6.873,0,10.31,0.007
		c0.003,15.521-0.003,31.043,0.003,46.568c-0.037,2.036-0.453,4.364-2.203,5.651c-1.419,1.349-3.465,1.71-5.351,1.757
		c-6.093-0.007-12.183,0-18.275-0.003c-2.596,0.081-5.309-0.138-7.672-1.287c-2.005-1.014-2.588-3.422-2.675-5.482
		c-0.104-7.755,0.116-15.51,0.06-23.267c-0.058-7.981,0.125-15.957,0.081-23.938c3.698-0.003,7.393,0.006,11.094-0.003
		c0-2.645-0.015-5.288,0.007-7.932c-3.698-0.019-7.396-0.016-11.095-0.002C107.527,101.38,107.531,98.806,107.546,96.228
		L107.546,96.228z"/>
	<path fill="#FFFFFF" d="M124.762,103.96c0.787-0.019,1.573-0.009,2.369-0.009c-0.006,2.646-0.006,5.293,0,7.943
		c-0.792,0-1.579,0-2.363-0.003C124.765,109.248,124.774,106.604,124.762,103.96L124.762,103.96z"/>
	<path fill="#FFFFFF" d="M114.864,119.209c1.252,0.005,2.507,0.003,3.767,0.005c0.016,3.56-0.186,7.147-1.001,10.622
		c-0.541,2.172-1.347,4.328-2.744,6.102C114.82,130.363,114.864,124.786,114.864,119.209L114.864,119.209z"/>
	<path fill="#FFFFFF" d="M124.768,119.214c0.781-0.002,1.571-0.002,2.36-0.002c0,4.065-0.003,8.132,0,12.198
		c0.016,2.363,1.165,4.736,3.229,5.967c1.63,1.221,3.71,1.296,5.662,1.189c-0.004,1.521-0.004,3.04,0,4.56
		c-7.054,0.003-14.109,0.003-21.162,0c-0.006-2.029-0.006-4.056,0.003-6.086c1.784,1.042,3.554,2.105,5.351,3.132
		c0.803-1.978,1.608-3.949,2.417-5.924c1.157-2.464,1.385-5.224,1.769-7.887C124.654,123.989,124.796,121.601,124.768,119.214
		L124.768,119.214z"/>
	<path fill="#FFFFFF" d="M133.265,119.212c0.913,0,1.829,0,2.751-0.003c0.006,4.622,0,9.243,0.004,13.862
		c-1.552,0.374-2.695-1.038-2.717-2.474C133.212,126.806,133.29,123.008,133.265,119.212L133.265,119.212z"/>
	<path fill="#383838" d="M148.299,134.629c10.59,0.006,21.184,0.003,31.777,0c-0.041,8.425-0.113,16.85-0.174,25.274
		c-0.091,1.146-0.314,2.34-0.985,3.303c-1.548,1.866-4.021,2.648-6.385,2.669c-5.035-0.011-10.074-0.004-15.109-0.007
		c-2.468,0.075-5.259-0.047-7.186-1.798c-1.539-1.262-1.856-3.404-1.938-5.274C148.286,150.74,148.29,142.684,148.299,134.629
		L148.299,134.629z M156.476,150.607c0.132,1.898-0.482,3.903,0.358,5.707c0.327,0.973,0.607,2.28,1.863,2.366
		c3.449,0.069,6.904,0.004,10.357,0.032c0.752,0.047,1.709-0.325,1.85-1.156c0.259-1.045,0.677-2.07,0.677-3.159
		c0.098-4.228,0.155-8.453,0.236-12.68c-5.057-0.01-10.114,0.009-15.169-0.01C156.573,144.674,156.528,147.64,156.476,150.607
		L156.476,150.607z"/>
	<path fill="#FFFFFF" d="M114.86,150.215c7.05-0.004,14.103-0.004,21.159,0c-0.004,1.284-0.004,2.568,0.006,3.851
		c0.06,1.345-0.494,2.6-0.791,3.888c-0.98,0.286-1.925,0.812-2.97,0.761c-4.526-0.009-9.055-0.012-13.58,0
		c-1.055,0.042-2.012-0.461-3.003-0.724c-0.343-1.4-0.89-2.785-0.834-4.245C114.854,152.568,114.852,151.391,114.86,150.215
		L114.86,150.215z"/>
</g>
</svg>
