<?xml version="1.0"?>
<svg version="1.1" xmlns="http://www.w3.org/2000/svg" xmlns:xlink="http://www.w3.org/1999/xlink" width="256" height="256">
  <g>
    <rect x="0" y="0" width="256" height="256" fill="#ef0003"/>
    <path d="M88.4863,161.92 C88.4863,172.894 85.1409,181.348 78.4502,187.283 C71.7594,193.218 62.7871,196.186 51.5332,196.186 C48.8457,196.186 45.2624,195.948 40.7832,195.472 C36.304,194.996 32.5527,194.422 29.5293,193.75 L29.5293,178.213 L30.4531,178.213 C32.7487,178.997 35.5762,179.809 38.9355,180.648 C42.2949,181.488 45.7383,181.908 49.2656,181.908 C54.4167,181.908 58.5179,181.32 61.5693,180.145 C64.6208,178.969 66.8744,177.289 68.3301,175.105 C69.8418,172.866 70.8076,170.122 71.2275,166.875 C71.6475,163.628 71.8574,159.876 71.8574,155.621 L71.8574,82.6387 L45.4023,82.6387 L45.4023,69.3691 L88.4863,69.3691 L88.4863,161.92 M226.471,132.021 C226.471,143.387 223.993,153.689 219.038,162.928 C214.083,172.166 207.49,179.333 199.26,184.428 C193.549,187.955 187.18,190.503 180.153,192.07 C173.127,193.638 163.874,194.422 152.396,194.422 L120.818,194.422 L120.818,69.3691 L152.061,69.3691 C164.266,69.3691 173.966,70.251 181.161,72.0146 C188.356,73.7783 194.445,76.1999 199.428,79.2793 C207.938,84.5983 214.573,91.681 219.332,100.527 C224.091,109.374 226.471,119.872 226.471,132.021 M209.086,131.77 C209.086,121.971 207.378,113.713 203.963,106.994 C200.548,100.275 195.452,94.9844 188.678,91.1211 C183.751,88.3216 178.516,86.376 172.973,85.2842 C167.43,84.1924 160.795,83.6465 153.068,83.6465 L137.447,83.6465 L137.447,180.145 L153.068,180.145 C161.075,180.145 168.06,179.557 174.022,178.381 C179.985,177.205 185.458,175.021 190.441,171.83 C196.656,167.855 201.317,162.62 204.425,156.125 C207.532,149.63 209.086,141.512 209.086,131.77 Z" fill='#fff'/>
  </g>
</svg>
