<?xml version="1.0"?>
<svg version="1.1" xmlns="http://www.w3.org/2000/svg" xmlns:xlink="http://www.w3.org/1999/xlink" width="512" height="512">
    <desc iVinci="yes" version="4.6" gridStep="20" showGrid="no" snapToGrid="no" codePlatform="0"/>
    <g id="Layer1" name="Layer 1" opacity="1">
        <g id="Shape1">
            <desc shapeID="1" type="0" basicInfo-basicType="1" basicInfo-roundedRectRadius="12" basicInfo-polygonSides="6" basicInfo-starPoints="5" bounding="rect(-255.499,-255,510.998,510.001)" text="" font-familyName="Helvetica" font-pixelSize="20" font-bold="0" font-underline="0" font-alignment="1" strokeStyle="0" markerStart="0" markerEnd="0" shadowEnabled="0" shadowOffsetX="0" shadowOffsetY="2" shadowBlur="4" shadowOpacity="160" blurEnabled="0" blurRadius="4" transform="matrix(1.00196,0,0,1.00392,256,256)" pers-center="0,0" pers-size="0,0" pers-start="0,0" pers-end="0,0" locked="0" mesh="" flag=""/>
            <path id="shapePath1" d="M0,-3.05176e-05 L512,-3.05176e-05 L512,512 L0,512 L0,-3.05176e-05 Z" style="stroke:none;fill-rule:evenodd;fill:#fe9900;fill-opacity:1;"/>
        </g>
        <g id="Shape2">
            <desc shapeID="2" type="0" basicInfo-basicType="0" basicInfo-roundedRectRadius="12" basicInfo-polygonSides="6" basicInfo-starPoints="5" bounding="rect(-200,-166.14,400,332.28)" text="" font-familyName="" font-pixelSize="20" font-bold="0" font-underline="0" font-alignment="1" strokeStyle="0" markerStart="0" markerEnd="0" shadowEnabled="0" shadowOffsetX="0" shadowOffsetY="2" shadowBlur="4" shadowOpacity="160" blurEnabled="0" blurRadius="4" transform="matrix(1,0,0,1,256,256)" pers-center="0,0" pers-size="0,0" pers-start="0,0" pers-end="0,0" locked="0" mesh="" flag=""/>
            <path id="shapePath2" d="M292.578,183.824 C282.896,184.589 271.725,185.326 260.557,186.83 C243.437,189.042 226.317,192.049 212.171,198.737 C184.627,209.945 166.008,233.79 166.008,268.852 C166.008,312.868 194.306,335.206 230.034,335.206 C241.965,335.206 251.64,333.74 260.557,331.497 C274.713,327.015 286.627,318.827 300.765,303.9 C308.958,315.106 311.179,320.329 325.34,332.239 C329.065,333.74 332.789,333.74 335.754,331.497 C344.686,324.038 360.315,310.624 368.527,303.166 C372.238,300.155 371.483,295.704 369.266,291.962 C361.068,281.528 352.885,272.561 352.885,252.455 L352.885,185.324 C352.885,156.965 355.1,130.871 334.271,111.502 C317.149,95.8157 290.342,89.86 269.502,89.86 C266.511,89.86 263.553,89.86 260.554,89.86 C222.589,92.1062 182.386,108.495 173.433,155.489 C171.971,161.444 176.446,163.687 179.422,164.451 L221.099,169.675 C225.57,168.903 227.79,165.184 228.531,161.443 C232.271,145.054 245.666,136.86 260.554,135.356 C261.309,135.356 262.059,135.356 263.553,135.356 C272.458,135.356 282.138,139.098 287.366,146.524 C293.298,155.489 292.576,167.428 292.576,177.863 L292.576,183.824 L292.578,183.824 M292.578,227.101 C292.578,244.264 293.3,257.673 284.382,272.562 C279.175,282.999 270.243,289.717 260.556,291.963 C259.074,291.963 256.858,292.728 254.609,292.728 C238.238,292.728 228.532,280.056 228.532,261.394 C228.532,237.538 242.691,226.339 260.556,221.117 C270.243,218.876 281.416,218.136 292.576,218.136 L292.576,227.101 L292.578,227.101 M429.71,404.302 C447.911,388.904 455.599,360.954 456,346.363 L456,343.923 C456,340.668 455.198,338.261 454.4,337.043 C450.755,332.598 424.032,328.52 400.998,335.415 C394.53,337.461 388.852,340.281 383.602,343.923 C379.551,346.776 380.364,350.387 384.404,350.003 C388.852,349.18 394.53,348.795 400.998,347.954 C415.157,346.775 431.741,346.363 435.782,351.618 C441.424,358.487 429.315,388.485 424.033,401.456 C422.44,405.522 426.062,407.152 429.71,404.302 M58.0082,346.364 C110.178,393.768 178.933,422.14 255.799,422.14 C303.524,422.14 358.525,408.759 400.998,383.241 C406.674,379.97 412.314,376.329 417.564,372.288 C424.849,367.038 418.381,358.908 411.101,362.14 C407.872,363.356 404.228,364.999 400.998,366.207 C354.459,384.455 305.557,392.967 260.236,392.967 C188.229,392.967 118.677,373.097 62.4505,340.283 C57.1906,337.461 53.5426,342.711 58.0082,346.364 Z" style="stroke:none;fill-rule:evenodd;fill:#ffffff;fill-opacity:1;"/>
        </g>
    </g>
</svg>
