<?xml version="1.0"?>
<svg version="1.1" xmlns="http://www.w3.org/2000/svg" xmlns:xlink="http://www.w3.org/1999/xlink" width="512" height="512">
    <desc iVinci="yes" version="4.6" gridStep="20" showGrid="no" snapToGrid="no" codePlatform="0"/>
    <g id="Layer1" name="Layer 1" opacity="1">
        <g id="Shape1">
            <desc shapeID="1" type="0" basicInfo-basicType="0" basicInfo-roundedRectRadius="12" basicInfo-polygonSides="6" basicInfo-starPoints="5" bounding="rect(-256,-256,512,512)" text="" font-familyName="" font-pixelSize="20" font-bold="0" font-underline="0" font-alignment="1" strokeStyle="0" markerStart="0" markerEnd="0" shadowEnabled="0" shadowOffsetX="0" shadowOffsetY="2" shadowBlur="4" shadowOpacity="160" blurEnabled="0" blurRadius="4" transform="matrix(1,0,0,1,256,256)" pers-center="0,0" pers-size="0,0" pers-start="0,0" pers-end="0,0" locked="0" mesh="" flag=""/>
            <path id="shapePath1" d="M3.05176e-05,0 L512,0 L512,512 L3.05176e-05,512 C3.05176e-05,512 3.05176e-05,0 3.05176e-05,0 Z" style="stroke:none;fill-rule:evenodd;fill:#cf2200;fill-opacity:1;"/>
        </g>
        <g id="Shape2">
            <desc shapeID="2" type="0" basicInfo-basicType="0" basicInfo-roundedRectRadius="12" basicInfo-polygonSides="6" basicInfo-starPoints="5" bounding="rect(-166.667,-200,333.333,400)" text="" font-familyName="" font-pixelSize="20" font-bold="0" font-underline="0" font-alignment="1" strokeStyle="0" markerStart="0" markerEnd="0" shadowEnabled="0" shadowOffsetX="0" shadowOffsetY="2" shadowBlur="4" shadowOpacity="160" blurEnabled="0" blurRadius="4" transform="matrix(1,0,0,1,256,256)" pers-center="0,0" pers-size="0,0" pers-start="0,0" pers-end="0,0" locked="0" mesh="" flag=""/>
            <path id="shapePath2" d="M371.289,348.587 L349.333,348.587 L349.436,335.836 C349.436,330.169 354.089,325.533 359.778,325.533 L361.178,325.533 C366.876,325.533 371.542,330.169 371.542,335.836 L371.289,348.587 L371.289,348.587 M288.947,321.262 C283.378,321.262 278.822,325.004 278.822,329.587 L278.822,391.6 C278.822,396.173 283.378,399.907 288.947,399.907 C294.538,399.907 299.098,396.173 299.098,391.6 L299.098,329.587 C299.098,325 294.538,321.262 288.947,321.262 M422.667,286.573 L422.667,404.547 C422.667,432.844 398.124,456 368.133,456 L143.871,456 C113.867,456 89.3334,432.844 89.3334,404.547 L89.3334,286.573 C89.3334,258.276 113.867,235.116 143.871,235.116 L368.133,235.116 C398.124,235.116 422.667,258.276 422.667,286.573 M158.831,417.356 L158.831,293.084 L186.631,293.093 L186.631,274.68 L112.524,274.569 L112.524,292.671 L135.658,292.738 L135.658,417.356 L158.849,417.356 L158.831,417.356 M242.164,311.596 L218.987,311.596 L218.987,377.956 C218.987,387.556 219.569,392.356 218.942,394.049 C217.058,399.196 208.587,404.658 205.285,394.604 C204.725,392.844 205.218,387.533 205.209,378.413 L205.116,311.596 L182.067,311.596 L182.138,377.36 C182.138,387.44 181.911,394.96 182.218,398.378 C182.782,404.409 182.582,411.444 188.178,415.458 C198.604,422.973 218.591,414.338 223.591,403.6 L223.547,417.302 L242.16,417.324 L242.16,311.596 L242.164,311.596 M316.311,387.587 L316.262,332.356 C316.262,311.307 300.498,298.698 279.12,315.729 L279.213,274.667 L256.058,274.702 L255.947,416.436 L274.982,416.156 L276.716,407.329 C301.053,429.653 316.347,414.36 316.311,387.587 L316.311,387.587 M388.849,380.267 L371.467,380.36 C371.467,381.049 371.422,381.844 371.422,382.711 L371.422,392.409 C371.422,397.596 367.133,401.822 361.925,401.822 L358.52,401.822 C353.302,401.822 349.018,397.596 349.018,392.409 L349.018,391.333 L349.018,380.667 L349.018,366.902 L388.813,366.902 L388.813,351.924 C388.813,340.978 388.533,330.036 387.627,323.778 C384.782,303.982 356.996,300.84 342.96,310.973 C338.551,314.138 335.187,318.373 333.231,324.067 C331.253,329.76 330.276,337.538 330.276,347.418 L330.276,380.347 C330.28,435.093 396.778,427.356 388.844,380.267 L388.849,380.267 M299.702,201.476 C300.898,204.382 302.756,206.738 305.276,208.516 C307.764,210.267 310.951,211.147 314.76,211.147 C318.102,211.147 321.062,210.244 323.64,208.382 C326.209,206.529 328.373,203.76 330.138,200.067 L329.702,209.16 L355.538,209.16 L355.538,99.2889 L335.2,99.2889 L335.2,184.8 C335.2,189.431 331.387,193.222 326.724,193.222 C322.089,193.222 318.262,189.431 318.262,184.8 L318.262,99.2889 L297.036,99.2889 L297.036,173.396 C297.036,182.836 297.204,189.129 297.484,192.32 C297.782,195.489 298.507,198.529 299.702,201.476 M221.409,139.422 C221.409,128.876 222.289,120.64 224.036,114.702 C225.796,108.787 228.956,104.031 233.533,100.444 C238.098,96.84 243.942,95.0356 251.049,95.0356 C257.027,95.0356 262.147,96.2089 266.427,98.5067 C270.724,100.818 274.036,103.818 276.338,107.52 C278.68,111.236 280.271,115.053 281.12,118.96 C281.987,122.92 282.413,128.893 282.413,136.951 L282.413,164.738 C282.413,174.929 282.004,182.427 281.213,187.187 C280.427,191.96 278.738,196.387 276.124,200.538 C273.542,204.644 270.213,207.716 266.178,209.676 C262.098,211.653 257.431,212.622 252.16,212.622 C246.271,212.622 241.311,211.809 237.222,210.111 C233.12,208.422 229.951,205.876 227.693,202.493 C225.413,199.107 223.809,194.982 222.84,190.173 C221.867,185.369 221.404,178.142 221.404,168.511 L221.404,139.422 L221.409,139.422 M241.644,183.067 C241.644,189.289 246.276,194.369 251.916,194.369 C257.56,194.369 262.169,189.289 262.169,183.067 L262.169,124.578 C262.169,118.364 257.56,113.284 251.916,113.284 C246.276,113.284 241.644,118.364 241.644,124.578 L241.644,183.067 M170.142,212.6 L194.516,212.6 L194.56,128.333 L223.36,56.1467 L196.702,56.1467 L181.391,109.764 L165.862,56 L139.48,56 L170.12,128.373 L170.164,212.6 L170.142,212.6 Z" style="stroke:none;fill-rule:nonzero;fill:#ffffff;fill-opacity:1;"/>
        </g>
    </g>
</svg>
