<?xml version="1.0" ?><svg version="1.1" viewBox="8 0 170.667007446289 170.667007446289" xmlns="http://www.w3.org/2000/svg" xmlns:xlink="http://www.w3.org/1999/xlink"><defs><linearGradient id="def0" x1="0.500004" x2="0.500004" y1="1" y2="1.03428E-05"><stop offset="0" stop-color="#FF9933"/><stop offset="1" stop-color="#FF7838"/></linearGradient></defs><g><path d="M178.667,148.312C178.667,160.659,168.659,170.667,156.312,170.667L30.3547,170.667C18.008,170.667,8,160.659,8,148.312L8,22.3533C8,10.008,18.008,0,30.3547,0L156.312,0C168.659,0,178.667,10.008,178.667,22.3533L178.667,148.312z" fill="#FF9933"/><path d="M96.8613,100.657L58.0333,68.5835C58.0333,68.5835,26.1067,90.7635,8,104.559L8,148.313C8,160.658,18.008,170.666,30.3533,170.666L156.313,170.666C168.659,170.666,178.667,160.658,178.667,148.313L178.667,65.2635 147.503,44.5275 96.8613,100.657z" fill="url(#def0)"/><path d="M8,103.226L58.0333,67.25" fill="none" stroke="#FFFFFF" stroke-width="4"/><path d="M58.0339,67.2501L96.8605,99.3235" fill="none" stroke="#FFFFFF" stroke-width="4"/><path d="M147.503,43.1948L178.667,63.9295" fill="none" stroke="#FFFFFF" stroke-width="4"/><path d="M96.8607,99.3237L147.502,43.1944" fill="none" stroke="#FFFFFF" stroke-width="4"/><path d="M58.4805,81.7352C52.9659,81.7352 48.4805,77.2485 48.4805,71.7352 48.4805,66.2205 52.9659,61.7339 58.4805,61.7339 63.9952,61.7339 68.4805,66.2205 68.4805,71.7352 68.4805,77.2485 63.9952,81.7352 58.4805,81.7352z" fill="#FF9933"/><path d="M58.4805,59.0672C51.4845,59.0672 45.8139,64.7379 45.8139,71.7339 45.8139,78.7312 51.4845,84.4019 58.4805,84.4019 65.4765,84.4019 71.1472,78.7312 71.1472,71.7339 71.1472,64.7379 65.4765,59.0672 58.4805,59.0672z M58.4805,64.4005C62.5245,64.4005 65.8139,67.6899 65.8139,71.7339 65.8139,75.7792 62.5245,79.0686 58.4805,79.0686 54.4365,79.0686 51.1472,75.7792 51.1472,71.7339 51.1472,67.6899 54.4365,64.4005 58.4805,64.4005z" fill="#FFFFFF"/><path d="M97.1472,108.402C91.6325,108.402 87.1472,103.915 87.1472,98.4005 87.1472,92.8859 91.6325,88.4005 97.1472,88.4005 102.662,88.4005 107.149,92.8859 107.149,98.4005 107.149,103.915 102.662,108.402 97.1472,108.402z" fill="#FF9933"/><path d="M97.1472,85.7339C90.1512,85.7339 84.4805,91.4059 84.4805,98.4005 84.4805,105.398 90.1512,111.069 97.1472,111.069 104.143,111.069 109.815,105.398 109.815,98.4005 109.815,91.4059 104.143,85.7339 97.1472,85.7339z M97.1472,91.0672C101.191,91.0672 104.482,94.3579 104.482,98.4005 104.482,102.445 101.191,105.735 97.1472,105.735 93.1032,105.735 89.8139,102.445 89.8139,98.4005 89.8139,94.3579 93.1032,91.0672 97.1472,91.0672z" fill="#FFFFFF"/><path d="M147.814,55.0686C142.299,55.0686 137.813,50.5819 137.813,45.0672 137.813,39.5526 142.299,35.0672 147.814,35.0672 153.329,35.0672 157.815,39.5526 157.815,45.0672 157.815,50.5819 153.329,55.0686 147.814,55.0686z" fill="#FF9933"/><path d="M147.814,32.4005C140.818,32.4005 135.146,38.0712 135.146,45.0672 135.146,52.0645 140.818,57.7352 147.814,57.7352 154.81,57.7352 160.482,52.0645 160.482,45.0672 160.482,38.0712 154.81,32.4005 147.814,32.4005z M147.814,37.7339C151.858,37.7339 155.149,41.0232 155.149,45.0672 155.149,49.1112 151.858,52.4019 147.814,52.4019 143.77,52.4019 140.479,49.1112 140.479,45.0672 140.479,41.0232 143.77,37.7339 147.814,37.7339z" fill="#FFFFFF"/></g></svg>