<svg id="Layer_1" data-name="Layer 1" xmlns="http://www.w3.org/2000/svg" viewBox="0 0 325.86 100"><defs><style>.cls-1{fill:#00a1af;}.cls-2{fill:#c99e1b;}.cls-3{fill:#f4cb1b;}.cls-4{fill:#383839;}.cls-5{fill:#77bc1f;}.cls-6{fill:#c4e86b;}</style></defs><title>Stratifyd-Logo-Final-Colors</title><polygon class="cls-1" points="1.04 22.07 35.02 52.02 35.02 36.4 1.04 6.45 1.04 22.07"/><polygon class="cls-2" points="18.63 57.87 52.62 87.82 52.62 72.2 18.63 42.25 18.63 57.87"/><polygon class="cls-3" points="66.58 84.28 66.58 68.66 52.62 72.2 52.62 87.82 66.58 84.28"/><path class="cls-4" d="M87,65.51a2.88,2.88,0,0,1-1.43-2.61,3,3,0,0,1,3-3,3.27,3.27,0,0,1,1.61.43,17.31,17.31,0,0,0,9.44,3.17c3.23,0,5.09-1.37,5.09-3.54V59.79c0-2.55-3.48-3.42-7.33-4.6-4.85-1.37-10.25-3.35-10.25-9.63V45.45c0-6.21,5.16-10,11.68-10a22.54,22.54,0,0,1,10.31,2.67A3.19,3.19,0,0,1,111,41a3,3,0,0,1-3.11,3,3,3,0,0,1-1.49-.37,17.9,17.9,0,0,0-7.7-2.24c-2.92,0-4.6,1.37-4.6,3.23v0.12c0,2.42,3.54,3.42,7.39,4.66,4.78,1.49,10.19,3.66,10.19,9.57v0.13c0,6.89-5.34,10.31-12.17,10.31A22.41,22.41,0,0,1,87,65.51"/><path class="cls-4" d="M118.37,35.5h1.43V24.09a3,3,0,0,1,.92-2.23,3.07,3.07,0,0,1,2.26-.92,3.16,3.16,0,0,1,3.15,3.15V35.5h3.79a3,3,0,0,1,2.21.92,3.07,3.07,0,0,1,.91,2.23,3.1,3.1,0,0,1-.91,2.26,3,3,0,0,1-2.21.93h-3.79V57.09q0,6,6.07,6a3,3,0,0,1,2.21.93,3.06,3.06,0,0,1,.91,2.23,3.1,3.1,0,0,1-.91,2.26,3,3,0,0,1-2.21.92q-12.4,0-12.4-12.37V41.83h-1.43a3,3,0,0,1-2.2-.93,3.07,3.07,0,0,1-.93-2.26,3,3,0,0,1,.93-2.23,3,3,0,0,1,2.2-.92"/><path class="cls-4" d="M144.2,38.65v0.61a17.38,17.38,0,0,1,4.94-2.79,16.56,16.56,0,0,1,5.7-1,24.54,24.54,0,0,1,2.87.18,12.61,12.61,0,0,1,2.82.65,6,6,0,0,1,2.14,1.29,2.82,2.82,0,0,1,.85,2.12,3,3,0,0,1-.26,1.24,3.52,3.52,0,0,1-.68,1,3,3,0,0,1-1,.68,3.17,3.17,0,0,1-1.24.24,3.39,3.39,0,0,1-1.33-.33,11.16,11.16,0,0,0-4.16-.76,10.41,10.41,0,0,0-4.16.83A10.61,10.61,0,0,0,145,48.32a10.41,10.41,0,0,0-.83,4.16V66.31A3.16,3.16,0,0,1,141,69.46a3.07,3.07,0,0,1-2.26-.92,3,3,0,0,1-.92-2.23V38.65a3,3,0,0,1,.92-2.23A3.07,3.07,0,0,1,141,35.5a3.16,3.16,0,0,1,3.15,3.15"/><path class="cls-4" d="M181.22,41.83a10.32,10.32,0,0,0-4.18.85,10.65,10.65,0,0,0-5.63,5.67,10.62,10.62,0,0,0,0,8.25A10.83,10.83,0,0,0,173.67,60,10.71,10.71,0,0,0,177,62.28a10.66,10.66,0,0,0,8.34,0,10.78,10.78,0,0,0,3.38-2.3A10.94,10.94,0,0,0,191,56.59a10.54,10.54,0,0,0,0-8.22A10.94,10.94,0,0,0,188.76,45a10.81,10.81,0,0,0-3.38-2.31,10.26,10.26,0,0,0-4.16-.85m10.65,24.47V65.7a17.38,17.38,0,0,1-4.94,2.79,16.56,16.56,0,0,1-5.7,1,17,17,0,0,1-17-17,17,17,0,1,1,34,0V66.31a3.16,3.16,0,0,1-3.15,3.15,3.07,3.07,0,0,1-2.26-.92,3,3,0,0,1-.93-2.23"/><path class="cls-4" d="M203.17,35.5h1.43V24.09a3,3,0,0,1,.92-2.23,3.07,3.07,0,0,1,2.26-.92,3.16,3.16,0,0,1,3.15,3.15V35.5h3.79a3,3,0,0,1,2.21.92,3.07,3.07,0,0,1,.91,2.23,3.1,3.1,0,0,1-.91,2.26,3,3,0,0,1-2.21.93h-3.79V57.09q0,6,6.07,6a3,3,0,0,1,2.21.93,3.06,3.06,0,0,1,.91,2.23,3.1,3.1,0,0,1-.91,2.26,3,3,0,0,1-2.21.92q-12.4,0-12.4-12.37V41.83h-1.43a3,3,0,0,1-2.2-.93,3.07,3.07,0,0,1-.93-2.26,3,3,0,0,1,.93-2.23,3,3,0,0,1,2.2-.92"/><path class="cls-4" d="M224.61,66.28V38.68a3.07,3.07,0,0,1,.93-2.26,3.15,3.15,0,0,1,4.46,0,3.19,3.19,0,0,1,1,2.26v27.6a3.19,3.19,0,0,1-1,2.26,3.15,3.15,0,0,1-4.46,0,3.07,3.07,0,0,1-.93-2.26m6.88-36.82a3.73,3.73,0,1,1-1.09-2.64,3.59,3.59,0,0,1,1.09,2.64"/><path class="cls-4" d="M271.65,66.31L260.73,40.07a3.53,3.53,0,0,1-.3-1.42,3.09,3.09,0,0,1,.24-1.21,3.29,3.29,0,0,1,.67-1,3,3,0,0,1,1-.68,3.23,3.23,0,0,1,3,.29,3.29,3.29,0,0,1,1.24,1.56l8.52,20.35,8.52-20.41a3.59,3.59,0,0,1,1-1.47,3,3,0,0,1,1.93-.56,3.17,3.17,0,0,1,1.24.24,3,3,0,0,1,1,.68,3.54,3.54,0,0,1,.68,1,3,3,0,0,1,.26,1.21,3.54,3.54,0,0,1-.33,1.42L272,81.9a3.54,3.54,0,0,1-1.21,1.53A3,3,0,0,1,269,84a3,3,0,0,1-2.26-.91,3.12,3.12,0,0,1-.89-2.28,3.33,3.33,0,0,1,.3-1.39Z"/><path class="cls-4" d="M318.48,52.48a10.23,10.23,0,0,0-.83-4.11A10.94,10.94,0,0,0,315.37,45,10.8,10.8,0,0,0,312,42.68a10.66,10.66,0,0,0-8.34,0A10.65,10.65,0,0,0,298,48.35a10.62,10.62,0,0,0,0,8.25,10.64,10.64,0,0,0,5.63,5.67,10.66,10.66,0,0,0,8.34,0A10.77,10.77,0,0,0,315.37,60a10.94,10.94,0,0,0,2.27-3.38,10.23,10.23,0,0,0,.83-4.11m-10.65-17a16.44,16.44,0,0,1,10.65,3.73V24.09a3.06,3.06,0,0,1,3.15-3.15,3.13,3.13,0,0,1,2.26.9,3,3,0,0,1,.93,2.26V52.48a16.24,16.24,0,0,1-5,12,17,17,0,0,1-29-12,17,17,0,0,1,17-17"/><path class="cls-4" d="M261.56,25.85a10.92,10.92,0,0,0-10-5,10.59,10.59,0,0,0-10.19,6.88,17.25,17.25,0,0,0-1.19,4.93,13.07,13.07,0,0,0-.09,2.39v0.62h0v1.58h-1.46a3.06,3.06,0,0,0-3.15,3.15,3.11,3.11,0,0,0,.89,2.27,3,3,0,0,0,2.26.91h1.46V66.31a3.09,3.09,0,0,0,.24,1.21,3.27,3.27,0,0,0,.67,1,3,3,0,0,0,1,.68,3.31,3.31,0,0,0,2.49,0,3,3,0,0,0,1-.68,3.29,3.29,0,0,0,.67-1,3.11,3.11,0,0,0,.24-1.21V43.56h6.1a3,3,0,0,0,2.23-.93,3.07,3.07,0,0,0,.93-2.26,3.16,3.16,0,0,0-3.15-3.15h-6.09V34.84s0-.1,0-0.15c0-1.16.2-4.54,1.9-6.31a4.37,4.37,0,0,1,3.38-1.24h0a0.66,0.66,0,0,0,.27,0c0.11,0,2.92-.18,4.22,2a3.15,3.15,0,0,0,5.4-3.25"/><polygon class="cls-5" points="18.63 0.32 18.63 15.94 52.62 45.89 52.62 30.27 18.63 0.32 18.63 0.32"/><polygon class="cls-6" points="66.58 42.36 66.58 26.74 52.62 30.27 52.62 45.89 66.58 42.36"/></svg>