<?xml version="1.0" standalone="no"?>
<!DOCTYPE svg PUBLIC "-//W3C//DTD SVG 20010904//EN"
 "http://www.w3.org/TR/2001/REC-SVG-20010904/DTD/svg10.dtd">
<svg version="1.0" xmlns="http://www.w3.org/2000/svg"
 width="384.000000pt" height="384.000000pt" viewBox="0 0 384.000000 384.000000"
 preserveAspectRatio="xMidYMid meet">
<metadata>
Created by potrace 1.13, written by Peter Selinger 2001-2015
</metadata>
<g transform="translate(0.000000,384.000000) scale(0.100000,-0.100000)"
fill="#000000" stroke="none">
<path d="M750 1846 c0 -36 35 -190 61 -273 56 -176 189 -516 237 -606 62 -118
152 -216 236 -257 114 -56 278 -50 414 15 154 74 308 74 471 0 183 -82 375
-47 563 104 155 125 264 319 297 528 19 125 19 125 -51 169 -98 60 -198 166
-243 257 l-38 77 -974 0 c-824 0 -973 -2 -973 -14z"/>
</g>
</svg>
