<?xml version="1.0" ?><svg height="512" id="Layer_1" version="1.1" viewBox="0 0 512 512" width="512" xml:space="preserve" xmlns="http://www.w3.org/2000/svg" xmlns:cc="http://creativecommons.org/ns#" xmlns:dc="http://purl.org/dc/elements/1.1/" xmlns:inkscape="http://www.inkscape.org/namespaces/inkscape" xmlns:rdf="http://www.w3.org/1999/02/22-rdf-syntax-ns#" xmlns:sodipodi="http://sodipodi.sourceforge.net/DTD/sodipodi-0.dtd" xmlns:svg="http://www.w3.org/2000/svg"><defs id="defs12"/><g id="g5927"><rect height="512" id="rect2987" style="fill:#0089d0;fill-opacity:1;fill-rule:nonzero;stroke:none" width="512" x="0" y="5.6843419e-014"/><g id="g2993_1_" transform="matrix(1.5735952,0,0,-1.5735952,-66.174026,217.36832)"><g id="g2995_1_" transform="translate(76.1162,130.9785)"><path d="m 76.299,-37.315 -74.775,-48.822 51.698,-41.401 75.396,46.553 -52.319,43.67 z" id="path2997_1_" style="fill:#ffffff"/></g><g id="g2999_1_" transform="translate(46.4863,78.8198)"><path d="m 31.154,-116.784 74.774,-48.825 52.323,43.673 -75.396,46.556 -51.701,-41.404 z" id="path3001_1_" style="fill:#ffffff"/></g><g id="g3003_1_" transform="translate(96.8486,76.7798)"><path d="m 107.889,-119.895 52.322,-43.673 74.772,48.825 -51.699,41.403 -75.395,-46.555 z" id="path3005_1_" style="fill:#ffffff"/></g><g id="g3007_1_" transform="translate(147.2109,111.6328)"><path d="m 184.624,-66.79 -74.775,48.82 -52.322,-43.67 75.395,-46.553 51.702,41.403 z" id="path3009_1_" style="fill:#ffffff"/></g><g id="g3011_1_" transform="translate(96.9092,73.0566)"><path d="m 107.983,-125.568 -52.477,-43.542 -22.453,14.658 v -16.434 l 74.93,-44.934 74.928,44.934 v 16.434 l -22.452,-14.658 -52.476,43.542 z" id="path3013_1_" style="fill:#ffffff"/></g></g></g></svg>