<?xml version="1.0" encoding="utf-8"?>
<!-- Svg Vector Icons : http://www.onlinewebfonts.com/icon -->
<!DOCTYPE svg PUBLIC "-//W3C//DTD SVG 1.1//EN" "http://www.w3.org/Graphics/SVG/1.1/DTD/svg11.dtd">
<svg version="1.1" xmlns="http://www.w3.org/2000/svg" xmlns:xlink="http://www.w3.org/1999/xlink" x="0px" y="0px" viewBox="0 0 1000 1000" enable-background="new 0 0 1000 1000" xml:space="preserve">
<metadata> Svg Vector Icons : http://www.onlinewebfonts.com/icon </metadata>
<g><path d="M789.4,149.1c-2.9,0-5.3,2.4-5.3,5.4v284.7c0,3,2.4,5.4,5.3,5.4h53c3,0,5.3-2.4,5.3-5.4V154.5c0-3-2.3-5.4-5.3-5.4H789.4z M427.5,401.2V189.6c0-10-0.8-15.7-5.9-22.2c-5-6.5-11.8-11.7-20.1-15.3c-17.9-6.9-37.6-10.2-59.1-10c-10,0-20,0.7-29.9,2c-10.1,1.8-19.2,4.4-27.4,8c-8.3,3.7-15,8.7-20.1,15.3c-5.9,6.4-8.4,15.1-8.4,25.1v208.6c0.4,18.7,9.7,30.3,28.9,37.4c8.3,3.7,17.5,6.3,27.8,7.8c10.1,2,20.2,3.1,30.3,3.1c7.6,0,14.8-0.6,21.6-1.8c0.4,8.1,2.9,14.8,7.8,20.1c4.6,5.5,14.3,8.4,29.3,8.7h27.8c3.1,0,6.3-2.7,6.3-5.7v-20.3c0-3-2.8-5.8-5.8-5.8h-23.2c-6.2,0-10.2-1.8-10.6-3.8c9.8-3.6,17.7-8.9,23.8-15.8C426.3,418.5,427.5,411.5,427.5,401.2z M363.8,394.3c0,4.8-1,10.4-4.3,14c-4.2,4.4-11.4,4.8-17.1,4.5c-7.1,0.3-12.5-1-15.9-3.9c-4.2-2.4-6.2-7.3-6.2-14.6V196.4c0-7.2,2-12.2,6.2-14.9c3.5-2.3,8.8-3.5,15.9-3.5c5.2,0,11.5,0.3,16,3.2c4.9,3.1,5.3,9.9,5.4,15.2C363.8,196.4,363.8,393.8,363.8,394.3z M210.6,215.8c2.9,0,5.3-2.4,5.3-5.3v-53.1c0-2.9-2.3-5.3-5.3-5.3h-53.1c-2.9,0-5.3,2.3-5.3,5.3v53.1c0,2.9,2.4,5.3,5.3,5.3L210.6,215.8L210.6,215.8z M471.1,154.5v281.9c0,3,2.3,5.4,5.3,5.4h53c2.9,0,5.3-2.4,5.3-5.4V154.5c0-3-2.3-5.4-5.3-5.4h-53C473.4,149.1,471.1,151.5,471.1,154.5z M157.6,444.6h53.1c2.9,0,5.3-2.5,5.3-5.5V241.6c0-3.1-2.3-5.5-5.3-5.5h-53.1c-2.9,0-5.3,2.5-5.3,5.5v197.4C152.2,442.1,154.6,444.6,157.6,444.6z M625.2,436.5c0,3,2.4,5.4,5.4,5.4h53.7c2.9,0,5.3-2.4,5.3-5.4c0-0.1,0-0.1,0-0.2V334.7l63.8-177.3c0.2-0.6,0.3-1.2,0.3-1.8c0-2.8-2.2-5.1-4.8-5.3h-0.3c-0.1,0,0.7-1.2,0.6-1.2h-55.1c-2.2,0-4.6,2.4-5.5,4.3c-0.1,0.1-0.1,0.3-0.1,0.4c0,0-28.4,88.8-31.1,104c-2.7-15.1-31-104-31-104c-0.1-0.1-0.1-0.2-0.1-0.3h-0.1c-0.8-2-2.3-4.4-4.5-4.4h-55.1c-0.1,0-0.3,1.2-0.4,1.2H566c-2.7,0.3-4.9,2.5-4.9,5.3c0,0.7,0.1,1.3,0.3,1.8l63.8,177.3v101.7C625.2,436.4,625.2,436.4,625.2,436.5z M225.4,102c8.5-13.6,24.6-17.9,39.3-20c59.3-8.6,112-13.1,167.5-14.8c22.1-0.6,66.9-0.8,67.2-0.8h0.7c22.2-0.1,44.3,0.3,66.4,0.9c55.6,1.6,108.2,6.2,167.5,14.8c14.7,2.1,30.8,6.5,39.3,20c5.3,8.5,10.5,22.2,10.7,26.8h63.8c0-13.3-4.6-37.7-12.5-54.5C830,63.2,821,52,810.9,45.2C773.8,20,578.2,11,543.5,10.4c-13.6-0.3-27.8-0.4-43.4-0.4h-0.7c-0.3,0-30.5,0.1-44.1,0.3c-34.7,0.6-230.2,9.7-267.4,34.8c-10.1,6.8-19.1,18.1-24.4,29.2c-7.8,16.8-11.3,41.2-11.3,54.5H216C216.1,124.2,220.2,110.4,225.4,102z M773.3,491c-8.5,13.5-24.6,17.7-39.3,20c-59.3,8.6-112,13-167.5,14.8c-22,0.7-44.2,0.9-66.4,0.8h-0.7c-0.3,0-45.1-0.2-67.2-0.9c-55.6-1.7-108.2-6.2-167.5-14.8c-14.7-2.1-30.8-6.4-39.3-19.9c-5.3-8.5-7.4-21.1-7.6-25.8l-65.1-0.1c0,13.3,3,36.7,10.8,53.5c5.3,11.1,14.3,22.4,24.4,29.1c37.2,25.2,232.7,34.2,267.5,34.8c13.6,0.3,43.8,0.3,44.1,0.3h0.7c15.5,0,29.7-0.1,43.3-0.3c34.6-0.5,230.2-9.5,267.5-34.8c10.1-6.8,19.1-18,24.4-29.1c7.8-16.9,12.5-40.4,12.5-53.7H784C783.8,469.6,778.6,482.5,773.3,491z M510.8,692.3c-4.8,0-8.3,2.6-9.8,7.5l-0.1,0.4c-0.5,4.1,0.7,9.7,9.1,12.2c30.4,7.6,53.9,16,70,24.8c1.9,0.9,3.8,1.4,5.5,1.4c3.6,0,7.2-1.4,8.7-5.4c0.7-1.8,0.8-4.2,0.4-5.9c-0.5-2.1-1.4-4.1-3-5.7c-1.2-1.1-2.6-2.2-4-2.9c-23-11.7-47.6-20.4-73.4-26C512.9,692.4,511.8,692.3,510.8,692.3z M472.1,695.5c-1.3,1.4-2.6,2.6-4,3.8c-3.1,2.7-6.6,4.8-10.2,6.7c-4.3,2.1-9,3.7-13.6,4.9c-5.5,1.4-11.2,2.4-16.9,3.2c-6.4,0.9-12.7,1.4-19.2,2c-4.4,0.4-8.8,3-10.1,7.4c-1.1,3.9,0.1,8.5,3.7,10.5c1.8,1.1,4.4,1.7,6.6,1.7c47.9-2.7,78.4-17.7,90.8-44.2h79.2c3.2,0,8.6-1.4,8.6-10.2c0-8.3-5.4-9.5-8.6-9.5h-74.5c0.7-4,1-6.5,1-9.3c0.1-3.6-2-7.4-5.5-8.5c-4.2-1.4-10-0.8-12.9,2.9c-0.8,1.1-1.6,2.7-1.9,4.1c0,0-1.4,7-1.8,10.2c-0.2,0.2-0.3,0.4-0.5,0.6h-66.4c-6.7,0-10.3,3.3-10.3,9.5c0,6.7,3.7,10.2,10.3,10.2h60.1c-0.3,0-1.5,1.7-1.8,2C473.4,694.3,472.7,694.9,472.1,695.5z M814.3,802.7c-1-0.5-2.1-0.7-3.2-0.7c-5.2-0.1-9.3,3.9-10.1,8.8c-0.3,1.5-0.5,3.3-0.5,4.8c0.3,8.5,0,15.7-3.5,19.2c-3.8,3.8-9.2,2.7-15.5,2.9h-70.3c-36.2,0-40.6-5.7-40.8-8.3c-0.5-3.1,7.7-16.4,92.9-72.2c5.7-3.5,9.6-5.9,12-7.6c7.1-5.5,7-11.1,5.5-14.9c-2.6-5.2-7.7-7.8-15.1-7.8H650.3c-9.7,0-11.2,6-11.2,9.7c0.5,4.2,2.9,9.3,12,9.3h92.8c-45.3,28.4-75.8,51.6-91,69.3c0,0-10,11-5.4,22.6c2.3,6.1,7.8,11.2,17.2,14.7c10.8,3.9,29.7,5.9,55.9,5.9h64.3c16.6,0,22-2.8,27.5-8.5c6.8-7.2,9.9-19.1,9-35.3C820.8,809.6,819,804.9,814.3,802.7z M365.4,839.3c-24.5-1.6-45.8-6.4-63.3-14.3c12.8-9.7,22.5-20.7,28.9-33c4-8.3,4.7-14.3,2.1-18.4c-2.2-3.5-6.7-5.2-13.1-5.2h-69.5c1.4-3,2.8-6.5,4.1-10.2H337c8.2-0.7,10.4-5.2,10.9-8.9c0.2,0.1,0.7,0.4,0.8,0.5c1.4,0.5,2.9,0.7,4.1,0.7c2.9,0,6.7-1.2,9.3-6.9c6.1-17.1,6.9-28.3,2.6-34.3c-2.3-3.3-6.1-5-11.1-5h-25.9c1.9-3.1,3.5-6.3,4.9-9.5c1.4-3.2,2.9-6.7,3.5-10c0.3-1.8,0.2-3.7-0.6-5.4c-0.4-0.7-0.8-1.3-1.4-1.8c5.3-0.6,8.6-0.6,13.8-1.6c2.7-0.5,5.5-1,7.8-2.5c2.7-1.8,4.2-5.9,3.8-9c-0.5-3.1-2.3-6.1-5.2-7.2c-1.5-0.7-3.5-1.1-5.2-1.1c-0.6,0-1.2,0-1.9,0.1c-34.2,5.7-71.6,8.6-111,8.6c-14.1,0-28.7-0.4-43.6-1.1c-9.1,0-11.5,4.6-12.1,8.6c0,4.2,1.9,9.5,10.8,10.3c2,0.5,5.3,0.8,9.8,0.8c-0.3,0-0.3,2.3-0.3,2.5c0.1,1,0.3,2,0.7,2.9c1.7,4,5.4,6.8,7.7,10.4c1.4,2.2,2.4,3.9,3.2,5.2h-23.3c-7-0.1-15.4,2.8-15.4,16.9V738c0,6.7,3.7,10.2,10.4,10.2c1.4,0,2.8-0.2,4-0.6c0,0.1,0,0.2-0.1,0.3c0,6,3.7,9.6,10.4,10.2h32.9c-13,27.5-32.3,47.8-57.3,60.6c-6.5,3.8-8.2,9.3-4.9,15.1l0.1,0.1l0.1,0.1c2.2,2.7,5.3,4.1,9.3,4.1c8.4,0,15.5-6.3,22.1-10.6c6.8-4.6,13.2-10.2,18.9-16.1c1.6-1.6,3.2-3.4,4.6-5.2c0.4-0.5,4.5-5.1,4.4-5.2c9,10.5,19.4,19.7,31,27.3c-17.5,7.2-38.3,11.5-62.1,12.5c-4.2,0.4-7.8,1.9-10.1,5.6c-4.1,6.8,0.9,14.3,8.3,14.8c1.6,0.1,13.7-1,19.9-2.1c12.1-2.2,23.9-4.8,35.5-8.5c5.2-1.6,10.3-3.5,15.3-5.6c4.6-2,9.1-4.2,13.5-6.7c0.2-0.1,1.4-0.9,1.5-0.8c26,12,53.9,19.2,82.8,21.4c6,0,9.7-3.3,10.3-9.5C374.6,843.7,371.4,840,365.4,839.3z M318.8,678.8c-0.6,0.8-1,1.5-1.4,2.3l-0.1,0.1v0.1c-3.1,8.9-7.8,16.6-14.1,22.9H282c-3.2-9-6.3-16.4-9.1-22C290.6,681.2,306,680.1,318.8,678.8z M263.9,724.9c0,0,78.6,0,78.9,0c1.6,0,3.9-0.1,3.8,2.2c-0.1,1.4-2.5,7.6-3.3,9.4c-0.4,1.2-0.6,2.2-0.7,3.3c-1.7-0.8-3.9-1.2-6.7-1.2h-74.4C263.4,731.1,264,727.1,263.9,724.9z M253.4,683.3c-0.3,2.5,0.1,4.7,1.3,6.5c3.1,6.1,5.2,10.9,6.5,14.5h-29.1c0.9-2.4,0.7-4.9-0.8-7.3c-2.7-4.9-5.7-9.5-9.2-13.7L253.4,683.3L253.4,683.3z M239.1,738.4h-39.7c-2.2,0-4.1,0.4-5.6,1.1c0-0.6,0.1-1.1,0.1-1.6v-8.5c-0.3-2,0-3.6,0.7-4.2c0.1-0.2,0.5-0.6,1.8-0.6c0.5,0,1.2,0.1,1.8,0.2l0.2,0.1h44.8C242.1,729.9,240.8,734.5,239.1,738.4z M279.6,816.5c-14.5-7.8-25.8-17-33.7-27.5h61.4c0.3,0.5,0.5,1,0.4,1.6C307.6,793.5,303.6,800.6,279.6,816.5z M568.4,759.9l23.3-0.1c6-0.7,9.3-4.2,9.3-10.5c-0.7-5.9-4.4-9.3-10.4-9.3H408.2c-6.5,0-10.5,3.3-11.1,9.3c-0.3,2.9,0.3,5.3,1.7,7c1.5,2,4.1,3.1,7.8,3.5h142v75.4c-0.1,1.6-0.4,6.8-13.6,6.8c-6.3,0-14.7-1.2-25-3.6c-1.2-0.3-2.2-0.4-3.3-0.4c-4.3,0-7.4,2.3-9.1,6.8c-1.1,3.5-1,6.4,0.3,8.5c1.2,2,3.3,3.3,6.2,4c12.7,2.8,23.5,4.2,32.4,4.2c20.4,0,31.1-7.3,31.9-22L568.4,759.9L568.4,759.9z M825.8,675.8h-46.9V662c0-3.2-1.2-8.6-9.5-8.6c-9,0-10.3,5.4-10.3,8.6v13.8h-52.3V662c0-3.2-1.2-8.6-9.5-8.6c-9,0-10.3,5.4-10.3,8.6v13.8h-50.5c-3.3,0-8.7,1.2-8.7,9.5c0,8.2,5.4,9.5,8.7,9.5h50.5v19.7c0,2.9,1.2,7.8,9.5,7.8c8.3,0,9.5-4.9,9.5-7.8v-19.7H759v19.7c0,2.9,1.2,7.8,9.5,7.8c8.2,0,9.5-4.9,9.5-7.8v-19.7h47.7c2.8,0,7.7-1.2,8.6-9.3l0.1-0.2l-0.1-0.3C833.5,677.1,828.6,675.8,825.8,675.8z M519.2,832.9c3.9-0.4,7-1.6,9.1-3.8c1.8-1.9,2.9-4.6,3.3-7.8v-38c-0.3-3.3-1.4-5.9-3.3-7.8c-2.1-2.2-5.2-3.5-9.1-3.8h-91.4c-4,0.3-7,1.6-9.1,3.8c-1.8,2-2.9,4.6-3.3,7.8v38c0.3,3.3,1.4,5.9,3.3,7.8c2.1,2.2,5.2,3.5,9.1,3.8H519.2z M435.3,794.3c0-3.3,1.4-4.7,4.7-4.7h67c3.3,0,4.7,1.4,4.7,4.7v15.9c0,3.3-1.4,4.7-4.7,4.7h-67c-3.4,0-4.7-1.4-4.7-4.7V794.3z M208.4,937.3c-1.4-1.4-2.5-1.3-3.3,0.6c1.4,7.6,2.3,14.5,2.7,20.6c1.1,1.4,2.2,1.4,3.3,0C210.7,951.3,209.9,944.2,208.4,937.3z M190.5,964.5c0.7,2.2,1.8,2.3,3.3,0.5c1.8-7.6,2.7-16.6,2.7-27.1c-0.8-1.8-1.8-1.8-3.3,0C193.2,947.6,192.3,956.5,190.5,964.5z M246.4,985.1h-4.4c-2.2,0.4-3.3-0.7-3.3-3.3v-19h4.4c4,0.4,5.8-1.4,5.4-5.4v-10.9c0.4-4-1.6-6-6-6h-23.8c-3.7,0.4-5.5,2.3-5.5,6v9.8c0,4.7,1.8,6.8,5.5,6.5h3.3v6c0.3,8.3-4,14.3-13,17.9c-1.4,2.2-0.9,3.3,1.6,3.3c10.1-4.3,15-10.9,14.7-19.6v-7.6h10.3v19.6c0,4.4,2.2,6.4,6.5,6h4.8c5.1,0.4,7.4-4.3,7-14.2c-1.1-1.8-2.2-1.8-3.3,0C251.2,982.3,249.7,985.8,246.4,985.1z M219.8,959.6c-2.2,0.4-3.3-0.9-3.3-3.8v-8.7c0-2.2,1.1-3.3,3.3-3.3h22.2c2.5,0,3.7,1.1,3.3,3.3v9.3c0.3,2.5-0.8,3.7-3.3,3.3H219.8z M199.8,987.8c1.1,1.4,2.2,1.4,3.3,0v-61.9c-1.1-1.8-2.2-1.8-3.3,0V987.8z M243.2,925.3c-1.4,4-3.8,8.2-7,12.5c0,1.8,0.9,2.3,2.7,1.6c3.3-4,5.8-8.2,7.6-12.5C246.1,925.2,245,924.7,243.2,925.3z M225.8,937.9c-1.4-4.4-3.1-8.2-4.8-11.4c-1.4-1.4-2.5-1.2-3.3,1.1c1.8,3.6,3.5,7.4,4.9,11.4C224.3,940.1,225.4,939.7,225.8,937.9z M376.1,934.1H438c1.4-1.1,1.4-2.2,0-3.3h-28.3c-1.1-2.9-2.2-5.1-3.3-6.6c-1.8-0.3-2.7,0.4-2.7,2.2c1.1,1.4,1.8,2.9,2.2,4.3h-29.8C374.6,931.9,374.6,933,376.1,934.1z M411.4,969.4c8.3-2.5,14-4.9,16.9-7c1.4-2.5,0-4-4.3-4.4h-40.3c-1.1,1.2-1.1,2.2,0,3.3h39.2c2.5,0-2.2,2-14.1,6c-1.4,0.7-2.2,1.6-2.2,2.7l1.1,2.2h-31.1c-1.4,1.1-1.4,2.2,0,3.3h32.6c2.5,5.7,2.9,9.3,1.1,10.3c-4,1.4-9.5,0.7-16.8-2.2c-1.8,0.3-2.3,1.4-1.6,3.3c7.6,2.9,14.1,3.7,19.6,2.2c4-1.9,4.5-6.5,1.6-13.6h25.6c1.4-1.2,1.4-2.2,0-3.3h-27.2C410.2,970.7,410.2,969.7,411.4,969.4z M383.6,943.9v4.3c0,4,1.8,5.8,5.5,5.4H425c4,0.4,5.8-1.4,5.4-5.4v-4.3c0.4-3.7-1.4-5.5-5.4-5.5h-35.9C385.5,938.4,383.6,940.2,383.6,943.9z M423.9,941.6c2.5,0,3.7,1.2,3.3,3.3v2.2c0.4,2.5-0.8,3.7-3.3,3.3h-33.7c-2.2,0.4-3.3-0.7-3.3-3.3v-2.2c0-2.2,1.2-3.3,3.3-3.3H423.9z M600.1,956.9c-3.7,0-5.4,2-5.4,6V983c0,4,1.8,5.8,5.4,5.4h16.3c4,0.4,5.8-1.6,5.5-6v-20.1c0.3-3.7-1.4-5.5-5.5-5.5H600.1z M618.6,981.9c0.4,2.5-0.5,3.7-2.7,3.3h-14.7c-2.2,0.4-3.3-0.7-3.3-3.3v-18.5c0-2.2,1.1-3.3,3.3-3.3h14.2c2.5,0,3.7,1.1,3.3,3.3L618.6,981.9L618.6,981.9z M568.6,931.9v13.6c0,4.3,1.8,6.4,5.5,6h34.2c4.4,0.4,6.4-1.6,6-6v-13c0.4-4-1.8-5.9-6.5-5.9h-33.6C570.5,926.8,568.6,928.6,568.6,931.9z M607.8,929.7c2.5,0,3.7,1.1,3.3,3.3v12c0.4,2.5-0.7,3.7-3.3,3.3h-32.6c-2.2,0.4-3.3-0.8-3.3-3.3v-12c0-2.2,1.1-3.3,3.3-3.3H607.8z M568.1,956.9c-4,0-6,1.8-6,5.5v20.1c0,4.4,2,6.4,6,6h15.7c4,0.4,5.8-1.4,5.5-5.4v-20.1c0.3-4-1.6-6-6-6H568.1z M586,982.4c0.4,2.2-0.7,3.1-3.3,2.7h-14.1c-2.2,0.4-3.3-0.7-3.3-3.3v-18.5c0-2.2,1.1-3.3,3.3-3.3h14.2c2.5,0,3.7,1.1,3.3,3.3L586,982.4L586,982.4z M753.7,935.2c0-2.5,1.1-3.8,3.3-3.8c10.5,0,17.9-0.2,22.3-0.5l-0.6,8.2h-22.3c-1.8,1.1-1.8,2.2,0,3.3h22.3l-0.5,7.6h-13.6c-3.3,0.4-5,2.2-5.4,5.5V977c1.1,1.4,2.2,1.4,3.3,0v-20.6c0-2.2,1.1-3.3,3.3-3.3h30.4c2.5,0,3.7,1.1,3.3,3.3V977c1.1,1.4,2.2,1.4,3.3,0v-21.7c0.4-3.7-1.4-5.5-5.5-5.5h-15.7l0.6-7.6h23.3c1.8-1.1,1.8-2.2,0-3.3h-23.3l0.5-8.2c9.8-0.4,17-0.9,21.7-1.6c1.8-1.4,1.6-2.5-0.5-3.3c-12.7,1.4-28.5,2.2-47.3,2.2c-3.6,0-5.6,1.8-5.9,5.4v28.3c0.3,8.7-1.4,16.9-5.5,24.5c-0.3,2.2,0.6,2.9,2.7,2.2c4.3-7.6,6.4-16.5,6-26.6L753.7,935.2L753.7,935.2z M753.7,985.7c-1.4,1.1-1.4,2.2,0,3.3c20.3-1.8,29.7-12,28.3-30.5c-1.2-1.1-2.2-1.1-3.3,0C779.7,974.8,771.4,983.9,753.7,985.7z M783,977c6.8,2.9,14,6.8,21.1,12c2.2,0,2.9-0.9,2.2-2.7c-6.2-4.7-13.4-8.9-21.8-12.5C782.1,974.2,781.5,975.2,783,977z"/></g>
</svg>