<?xml version="1.0" ?><svg height="100" id="svg2" version="1.1" width="100" xmlns="http://www.w3.org/2000/svg" xmlns:cc="http://creativecommons.org/ns#" xmlns:dc="http://purl.org/dc/elements/1.1/" xmlns:inkscape="http://www.inkscape.org/namespaces/inkscape" xmlns:rdf="http://www.w3.org/1999/02/22-rdf-syntax-ns#" xmlns:sodipodi="http://sodipodi.sourceforge.net/DTD/sodipodi-0.dtd" xmlns:svg="http://www.w3.org/2000/svg"><defs id="defs4"><clipPath clipPathUnits="userSpaceOnUse" id="clipPath3789"><path d="m 674.28571,549.50507 a 261.42856,262.85715 0 1 1 -522.85712,0 261.42856,262.85715 0 1 1 522.85712,0 z" id="path3791" style="fill:#f29f4a;fill-opacity:1;stroke:none" transform="matrix(0.18360657,0,0,0.18260869,190.37192,664.37679)"/></clipPath></defs><g id="layer1" transform="translate(0,-952.36218)"><path d="M 50.000003,954.36217 C 23.49033,954.36217 2,975.8525 2,1002.3622 c 0,26.5096 21.49033,48 48.000003,48 26.509668,0 48,-21.4904 48,-48 l -48,-48.00003 z" id="path2985-5" style="fill:#e74c3c;fill-opacity:1;stroke:none"/><path d="m 50.000003,954.36217 0,48.00003 48,0 -48,-48.00003 z" id="rect3038" style="opacity:0.4;fill:#f8f6de;fill-opacity:1;stroke:none"/><path d="M 70.8125 53.875 L 67.78125 54.375 L 67.78125 69.4375 C 67.781248 70.087503 67.835415 70.670836 67.96875 71.1875 C 68.118748 71.687502 68.368748 72.087501 68.71875 72.4375 C 69.068747 72.770834 69.541663 73.035417 70.125 73.21875 C 70.724995 73.402083 71.474994 73.514583 72.375 73.53125 L 72.8125 71.03125 C 72.412494 70.981252 72.079161 70.895836 71.8125 70.8125 C 71.562494 70.712503 71.368745 70.604169 71.21875 70.4375 C 71.068745 70.25417 70.941662 70.031253 70.875 69.78125 C 70.824995 69.531254 70.812495 69.210421 70.8125 68.84375 L 70.8125 53.875 z M 50.25 55.9375 L 55.8125 64.21875 C 54.662495 65.852091 53.577079 67.437506 52.59375 68.9375 C 51.610415 70.420836 50.749999 71.864585 50 73.28125 L 53.5625 73.28125 C 53.762496 72.88125 54.041662 72.395834 54.375 71.8125 C 54.708328 71.229169 55.054161 70.616669 55.4375 70 C 55.837494 69.366671 56.24166 68.756255 56.625 68.15625 C 57.024992 67.556256 57.385409 67.02709 57.71875 66.59375 C 58.518741 67.693756 59.297907 68.847921 60.03125 70.03125 C 60.764572 71.214585 61.360405 72.297918 61.84375 73.28125 L 65.5625 73.28125 C 64.895818 72.014585 64.045819 70.595836 63.0625 69.0625 C 62.095821 67.529172 60.985405 65.904174 59.71875 64.1875 L 65.1875 55.9375 L 61.59375 55.9375 L 57.8125 61.875 L 54 55.9375 L 50.25 55.9375 z M 79.46875 59.875 C 77.952079 59.875013 76.72708 60.237513 75.84375 60.9375 C 74.960415 61.620845 74.531249 62.550011 74.53125 63.75 C 74.531249 64.366676 74.629165 64.879175 74.8125 65.3125 C 75.012498 65.729174 75.260415 66.106257 75.59375 66.40625 C 75.927081 66.706257 76.331247 66.954173 76.78125 67.1875 C 77.247913 67.404173 77.762496 67.612506 78.3125 67.8125 C 79.212494 68.145838 79.83541 68.466671 80.21875 68.75 C 80.618743 69.033338 80.843743 69.379171 80.84375 69.8125 C 80.843743 70.27917 80.647909 70.612503 80.28125 70.8125 C 79.914577 70.995836 79.331244 71.093752 78.53125 71.09375 C 77.731246 71.093752 77.00833 71.010419 76.375 70.84375 C 75.758331 70.677086 75.231248 70.495836 74.78125 70.3125 L 74.25 72.84375 C 74.533332 72.960417 75.018748 73.129167 75.71875 73.3125 C 76.418747 73.5125 77.349996 73.59375 78.5 73.59375 C 80.21666 73.59375 81.552075 73.289583 82.46875 72.65625 C 83.402073 72.006251 83.843739 71.062502 83.84375 69.8125 C 83.843739 69.229171 83.77499 68.729171 83.625 68.3125 C 83.47499 67.895839 83.239573 67.504172 82.90625 67.1875 C 82.589574 66.854173 82.187491 66.562507 81.6875 66.3125 C 81.187492 66.045841 80.560409 65.797924 79.84375 65.53125 C 79.410411 65.381258 79.049994 65.227091 78.75 65.09375 C 78.449995 64.943758 78.214578 64.820842 78.03125 64.6875 C 77.847912 64.537509 77.708329 64.354176 77.625 64.1875 C 77.558329 64.020843 77.531246 63.841676 77.53125 63.625 C 77.531246 63.191677 77.710412 62.88751 78.09375 62.6875 C 78.477078 62.470844 78.977078 62.343761 79.59375 62.34375 C 80.277076 62.343761 80.889576 62.429178 81.40625 62.5625 C 81.922908 62.679177 82.354158 62.78751 82.6875 62.9375 L 83.21875 60.5 C 82.86874 60.36668 82.356241 60.227096 81.65625 60.09375 C 80.956242 59.943763 80.23541 59.875013 79.46875 59.875 z " id="text3812" style="font-size:25px;font-style:normal;font-variant:normal;font-weight:500;font-stretch:normal;line-height:125%;letter-spacing:0px;word-spacing:0px;fill:#f8f6de;fill-opacity:1;stroke:none;font-family:Ubuntu;-inkscape-font-specification:Ubuntu Medium" transform="translate(0,952.36218)"/></g></svg>