<?xml version="1.0" ?><svg height="100" id="svg2" version="1.1" width="100" xmlns="http://www.w3.org/2000/svg" xmlns:cc="http://creativecommons.org/ns#" xmlns:dc="http://purl.org/dc/elements/1.1/" xmlns:inkscape="http://www.inkscape.org/namespaces/inkscape" xmlns:rdf="http://www.w3.org/1999/02/22-rdf-syntax-ns#" xmlns:sodipodi="http://sodipodi.sourceforge.net/DTD/sodipodi-0.dtd" xmlns:svg="http://www.w3.org/2000/svg"><defs id="defs4"><clipPath clipPathUnits="userSpaceOnUse" id="clipPath4859"><path d="m 87.5,1004.8622 c 0,20.7107 -16.789322,37.5 -37.5,37.5 -20.710678,0 -37.5,-16.7893 -37.5,-37.5 0,-20.7107 16.789322,-37.50002 37.5,-37.50002 20.710678,0 37.5,16.78932 37.5,37.50002 z" id="path4861" style="fill:#ffc935;fill-opacity:1;fill-rule:nonzero;stroke:#1a3752;stroke-width:2;stroke-miterlimit:4;stroke-opacity:1;stroke-dasharray:none"/></clipPath><clipPath clipPathUnits="userSpaceOnUse" id="clipPath6476"><path d="m 5,60 c 0,5 5,10 10,10 l 25,0 c 4,0 6,-2 7.484784,-4.969568 L 55,50 C 57,45 50,45 45,45 L 25,45 C 14,45 5,55 5,60 z" id="path6478" style="color:#000000;fill:none;stroke:#1a3752;stroke-width:2;stroke-linecap:butt;stroke-linejoin:round;stroke-miterlimit:4;stroke-opacity:1;stroke-dasharray:none;stroke-dashoffset:0;marker:none;visibility:visible;display:inline;overflow:visible;enable-background:accumulate"/></clipPath><clipPath clipPathUnits="userSpaceOnUse" id="clipPath6827"><path d="m 10,60 80,0 0,-30 c 0,-3 -2,-5 -5,-5 l -65,0 c -5,0 -10,5 -10,25 z" id="path6829" style="color:#000000;fill:none;stroke:#1a3752;stroke-width:2;stroke-linecap:butt;stroke-linejoin:round;stroke-miterlimit:4;stroke-opacity:1;stroke-dasharray:none;stroke-dashoffset:0;marker:none;visibility:visible;display:inline;overflow:visible;enable-background:accumulate"/></clipPath><clipPath clipPathUnits="userSpaceOnUse" id="clipPath9343"><path d="m 89,879.36218 c -5,-6 -24,-16 -35,-16 l -12,0 -14,22 61,0 z" id="path9345" style="color:#000000;fill:none;stroke:#1a3752;stroke-width:2;stroke-linecap:butt;stroke-linejoin:round;stroke-miterlimit:4;stroke-opacity:1;stroke-dasharray:none;stroke-dashoffset:0;marker:none;visibility:visible;display:inline;overflow:visible;enable-background:accumulate"/></clipPath><clipPath clipPathUnits="userSpaceOnUse" id="clipPath9347"><path d="M 89,-73 C 84,-79 65,-89 54,-89 l -12,0 -14,22 61,0 z" id="path9349" style="color:#000000;fill:none;stroke:#1a3752;stroke-width:2;stroke-linecap:butt;stroke-linejoin:round;stroke-miterlimit:4;stroke-opacity:1;stroke-dasharray:none;stroke-dashoffset:0;marker:none;visibility:visible;display:inline;overflow:visible;enable-background:accumulate"/></clipPath><clipPath clipPathUnits="userSpaceOnUse" id="clipPath9571"><path d="m 85,70 5,0 c 3,0 5,-2 5,-5 C 95,45 80,30 70,30 l -55,0 c -3,0 -5,2 -5,5 l 0,30 c 0,3 2,5 5,5 z" id="path9573" style="color:#000000;fill:none;stroke:#1a3752;stroke-width:2;stroke-linecap:butt;stroke-linejoin:round;stroke-miterlimit:4;stroke-opacity:1;stroke-dasharray:none;stroke-dashoffset:0;marker:none;visibility:visible;display:inline;overflow:visible;enable-background:accumulate"/></clipPath><clipPath clipPathUnits="userSpaceOnUse" id="clipPath9696"><path d="m 55,50.00002 1,-25.00006 24,0 3,12 -1,13.00006 c -3,1 -5,3 -7,6 l -10,4 z" id="path9698" style="color:#000000;fill:none;stroke:#1a3752;stroke-width:2;stroke-linecap:butt;stroke-linejoin:round;stroke-miterlimit:4;stroke-opacity:1;stroke-dasharray:none;stroke-dashoffset:0;marker:none;visibility:visible;display:inline;overflow:visible;enable-background:accumulate"/></clipPath><clipPath clipPathUnits="userSpaceOnUse" id="clipPath9706"><path d="m 55,1002.3622 1,-25.00006 24,0 3,12 -1,13.00006 c -3,1 -5,3 -7,6 l -10,4 z" id="path9708" style="color:#000000;fill:none;stroke:#1a3752;stroke-width:2;stroke-linecap:butt;stroke-linejoin:round;stroke-miterlimit:4;stroke-opacity:1;stroke-dasharray:none;stroke-dashoffset:0;marker:none;visibility:visible;display:inline;overflow:visible;enable-background:accumulate"/></clipPath></defs><g id="layer1" transform="translate(0,-952.36218)"><path d="m 63.051985,1021.8622 25,0 0,-20 -30,0 0,20 z" id="path9719" style="color:#000000;fill:#595859;fill-opacity:1;stroke:#1a3752;stroke-width:2;stroke-linecap:butt;stroke-linejoin:round;stroke-miterlimit:4;stroke-opacity:1;stroke-dasharray:none;stroke-dashoffset:0;marker:none;visibility:visible;display:inline;overflow:visible;enable-background:accumulate"/><path d="m 43.051985,1019.8622 8,0 0,-5 -8,0 z" id="path9688" style="color:#000000;fill:#ff9a2e;fill-opacity:1;stroke:#1a3752;stroke-width:2;stroke-linecap:butt;stroke-linejoin:round;stroke-miterlimit:4;stroke-opacity:1;stroke-dasharray:none;stroke-dashoffset:0;marker:none;visibility:visible;display:inline;overflow:visible;enable-background:accumulate"/><path d="m 30.540952,1019.3622 c 0,6.9035 -5.596441,12.5 -12.5,12.5 -6.903559,0 -12.5000001,-5.5965 -12.5000001,-12.5 0,-6.9036 5.5964411,-12.5 12.5000001,-12.5 6.903559,0 12.5,5.5964 12.5,12.5 z" id="path9660" style="fill:#6b6a6b;fill-opacity:1;fill-rule:nonzero;stroke:#1a3752;stroke-width:2;stroke-miterlimit:4;stroke-opacity:1;stroke-dasharray:none"/><path d="m 6.0409518,1024.8688 c -4.988794,0.3345 -5.65792316,-9.6431 -0.669129,-9.9776 l 32.0222392,-4.6721 5.323359,4.6543 0.334564,4.9888 -4.721143,4.3256 z" id="path9663" style="color:#000000;fill:#ffb142;fill-opacity:1;stroke:none;stroke-width:2;marker:none;visibility:visible;display:inline;overflow:visible;enable-background:accumulate"/><path d="m 38.051985,1001.8622 1,-25.00007 24,0 3,12 -1,13.00007 c -3,1 -5,3 -7,6 l -10,4 z" id="path9676" style="color:#000000;fill:#d3d1d2;fill-opacity:1;stroke:none;stroke-width:2;marker:none;visibility:visible;display:inline;overflow:visible;enable-background:accumulate"/><path d="m 39.051985,976.86217 -2,0 c -1,0 -1,-4 0,-4 l 27,0 c 1,0 1,4 0,4 z" id="path9678" style="color:#000000;fill:#ff9a2e;fill-opacity:1;stroke:#1a3752;stroke-width:2;stroke-linecap:butt;stroke-linejoin:round;stroke-miterlimit:4;stroke-opacity:1;stroke-dasharray:none;stroke-dashoffset:0;marker:none;visibility:visible;display:inline;overflow:visible;enable-background:accumulate"/><path d="m 48.051985,1011.8622 0,5 5,5 20,0 0,-10 -15,-4 z" id="path9686" style="color:#000000;fill:#ffb142;fill-opacity:1;stroke:#1a3752;stroke-width:2;stroke-linecap:butt;stroke-linejoin:round;stroke-miterlimit:4;stroke-opacity:1;stroke-dasharray:none;stroke-dashoffset:0;marker:none;visibility:visible;display:inline;overflow:visible;enable-background:accumulate"/><path d="m 51.47183,1018.8622 8.580155,0 0,2 -6.580155,0 z" id="path9737" style="color:#000000;fill:#ff9a2e;fill-opacity:1;stroke:none;stroke-width:1px;marker:none;visibility:visible;display:inline;overflow:visible;enable-background:accumulate"/><path d="m 85.551985,1019.3622 c 0,6.9035 -5.596441,12.5 -12.5,12.5 -6.903559,0 -12.5,-5.5965 -12.5,-12.5 0,-6.9036 5.596441,-12.5 12.5,-12.5 6.903559,0 12.5,5.5964 12.5,12.5 z" id="path9680" style="fill:#6b6a6b;fill-opacity:1;fill-rule:nonzero;stroke:#1a3752;stroke-width:2;stroke-miterlimit:4;stroke-opacity:1;stroke-dasharray:none"/><path d="m 66.051985,988.86217 c 12.106142,0 22,3 27,13.00003 l 0,10 -5,0 c -4,-7 -10,-10 -20,-10 l -3,0 z" id="path9682" style="color:#000000;fill:#ffb142;fill-opacity:1;stroke:none;stroke-width:2;marker:none;visibility:visible;display:inline;overflow:visible;enable-background:accumulate"/><path d="m 88.051985,1011.8622 5,0 0,-7 5.000001,0 0,12 -5.000001,5 -5,0 z" id="path9684" style="color:#000000;fill:#ffb142;fill-opacity:1;stroke:#1a3752;stroke-width:2;stroke-linecap:butt;stroke-linejoin:round;stroke-miterlimit:4;stroke-opacity:1;stroke-dasharray:none;stroke-dashoffset:0;marker:none;visibility:visible;display:inline;overflow:visible;enable-background:accumulate"/><path clip-path="url(#clipPath9696)" d="m 53,30 9,0 0,20 -10,0 z" id="path9690" style="color:#000000;fill:#b7e3fe;fill-opacity:1;stroke:#1a3752;stroke-width:2;stroke-linecap:butt;stroke-linejoin:round;stroke-miterlimit:4;stroke-opacity:1;stroke-dasharray:none;stroke-dashoffset:0;marker:none;visibility:visible;display:inline;overflow:visible;enable-background:accumulate" transform="translate(-16.948015,951.86217)"/><path d="m 48.051985,981.86217 8,0 0,15 -8,0 z" id="path9692" style="color:#000000;fill:#b7e3fe;fill-opacity:1;stroke:#1a3752;stroke-width:2;stroke-linecap:butt;stroke-linejoin:round;stroke-miterlimit:4;stroke-opacity:1;stroke-dasharray:none;stroke-dashoffset:0;marker:none;visibility:visible;display:inline;overflow:visible;enable-background:accumulate"/><path d="m 46.051985,1008.8622 c 5.294835,-1.4335 9.371379,-3.4 12,-6 1.745814,-1.6994 2.37183,-2.0065 4,-3.00001 0.66198,-0.40396 1.335145,-10.57883 2,-11.00002 l 2,0 -1,13.00003 c -2.438977,1.7951 -5.243532,3.4197 -6,6 l -11,4 z" id="path9747" style="color:#000000;fill:#c1bec0;fill-opacity:1;stroke:none;stroke-width:1px;marker:none;visibility:visible;display:inline;overflow:visible;enable-background:accumulate"/><path d="m 48.051985,999.86219 8,0 0,4.00001 -8,3 z" id="path9700" style="color:#000000;fill:#b7e3fe;fill-opacity:1;stroke:none;stroke-width:2;marker:none;visibility:visible;display:inline;overflow:visible;enable-background:accumulate"/><path clip-path="url(#clipPath9706)" d="m 76,982.36218 8,0 0,7 -8,0 z" id="path9702" style="color:#000000;fill:#b7e3fe;fill-opacity:1;stroke:#1a3752;stroke-width:2;stroke-linecap:butt;stroke-linejoin:round;stroke-miterlimit:4;stroke-opacity:1;stroke-dasharray:none;stroke-dashoffset:0;marker:none;visibility:visible;display:inline;overflow:visible;enable-background:accumulate" transform="translate(-16.948015,-0.50002)"/><path d="m 79.551985,1019.3622 c 0,3.5898 -2.910149,6.5 -6.5,6.5 -3.589851,0 -6.5,-2.9102 -6.5,-6.5 0,-3.5899 2.910149,-6.5 6.5,-6.5 3.589851,0 6.5,2.9101 6.5,6.5 z" id="path9710" style="fill:#d3d1d2;fill-opacity:1;fill-rule:nonzero;stroke:#1a3752;stroke-width:2;stroke-linecap:round;stroke-linejoin:round;stroke-miterlimit:4;stroke-opacity:1"/><path d="m 75.051985,1019.3622 c 0,1.1045 -0.895431,2 -2,2 -1.104569,0 -2,-0.8955 -2,-2 0,-1.1046 0.895431,-2 2,-2 1.104569,0 2,0.8954 2,2 z" id="path9713" style="fill:#6b6a6b;fill-opacity:1;fill-rule:nonzero;stroke:#1a3752;stroke-width:2;stroke-linecap:round;stroke-linejoin:round;stroke-miterlimit:4;stroke-opacity:1"/><path d="m 38.051985,998.86217 2,0 c 1,0 2,-1 2,-2 l 0,-14 1,0 1,0 0,18.00003 -6,0 z" id="path9725" style="color:#000000;fill:#84cafe;fill-opacity:1;stroke:none;stroke-width:1px;marker:none;visibility:visible;display:inline;overflow:visible;enable-background:accumulate"/><path d="m 60.051985,985.86215 2,0 c 1,0 2,-1 2,-2 l 0,2e-5 1,0 0,1 1,3 -6,0 z" id="path9727" style="color:#000000;fill:#84cafe;fill-opacity:1;stroke:none;stroke-width:1px;marker:none;visibility:visible;display:inline;overflow:visible;enable-background:accumulate"/><path d="m 38.051985,1001.8622 1,-25.00007 24,0 3,12 -1,13.00007 c -3,1 -5,3 -7,6 l -10,4 z" id="path9721" style="color:#000000;fill:none;stroke:#1a3752;stroke-width:2;stroke-linecap:butt;stroke-linejoin:round;stroke-miterlimit:4;stroke-opacity:1;stroke-dasharray:none;stroke-dashoffset:0;marker:none;visibility:visible;display:inline;overflow:visible;enable-background:accumulate"/><path d="m 49.051985,993.86217 2,0 c 1,0 2,-1 2,-2 l 0,-9 1,0 1,0 0,13 -6,0 z" id="path9723" style="color:#000000;fill:#84cafe;fill-opacity:1;stroke:none;stroke-width:1px;marker:none;visibility:visible;display:inline;overflow:visible;enable-background:accumulate"/><path d="m 49.051985,1003.8622 c 1.637153,-0.7975 3.977708,-1.126 4,-3 l 2,0 0,3 -6,2 z" id="path9729" style="color:#000000;fill:#84cafe;fill-opacity:1;stroke:none;stroke-width:1px;marker:none;visibility:visible;display:inline;overflow:visible;enable-background:accumulate"/><path d="m 48.051985,999.86219 8,0 0,4.00001 -8,3 z" id="path9731" style="color:#000000;fill:none;stroke:#1a3752;stroke-width:2;stroke-linecap:butt;stroke-linejoin:round;stroke-miterlimit:4;stroke-opacity:1;stroke-dasharray:none;stroke-dashoffset:0;marker:none;visibility:visible;display:inline;overflow:visible;enable-background:accumulate"/><path d="m 2.0409518,1021.8622 34.0110332,-1 c 2,0 2,0 3,-2 0.718289,-1.5381 0.856292,-3.7725 1,-6 l 3,2 0,5 -5,4 -34.0110332,1 z" id="path9733" style="color:#000000;fill:#ff9a2e;fill-opacity:1;stroke:none;stroke-width:1px;marker:none;visibility:visible;display:inline;overflow:visible;enable-background:accumulate"/><path d="m 6.0409518,1024.8688 c -4.988794,0.3345 -5.65792316,-9.6431 -0.669129,-9.9776 l 32.0222392,-4.6721 5.323359,4.6543 0.334564,4.9888 -4.721143,4.3256 z" id="path9735" style="color:#000000;fill:none;stroke:#1a3752;stroke-width:2;stroke-linecap:butt;stroke-linejoin:round;stroke-miterlimit:4;stroke-opacity:1;stroke-dasharray:none;stroke-dashoffset:0;marker:none;visibility:visible;display:inline;overflow:visible;enable-background:accumulate"/><path d="m 21.040952,1019.3622 c 0,1.6568 -1.343146,3 -3,3 -1.656854,0 -3,-1.3432 -3,-3 0,-1.6569 1.343146,-3 3,-3 1.656854,0 3,1.3431 3,3 z" id="path9716" style="fill:#6b6a6b;fill-opacity:1;fill-rule:nonzero;stroke:#1a3752;stroke-width:2;stroke-linecap:round;stroke-linejoin:round;stroke-miterlimit:4;stroke-opacity:1"/><path d="m 89.051985,1018.8622 1.96875,0 c 1.04525,0.154 1.31193,-0.2807 2.01563,-0.9844 l 1.02343,-1.0234 c 0.84373,-0.6661 0.99219,-0.9922 0.99219,-1.9922 l 0,-9 2.000001,0 0,10.5781 -4.414431,4.4219 -3.58557,0 z" id="path9739" style="color:#000000;fill:#ff9a2e;fill-opacity:1;stroke:none;stroke-width:1px;marker:none;visibility:visible;display:inline;overflow:visible;enable-background:accumulate"/><path d="m 83.051985,1004.8622 c 3,1 5,4 6,4 2,0 2,-4 2,-9.00001 l 1,2.00001 0,9 -4,0 z" id="path9741" style="color:#000000;fill:#ff9a2e;fill-opacity:1;stroke:none;stroke-width:1px;marker:none;visibility:visible;display:inline;overflow:visible;enable-background:accumulate"/><path d="m 68.051985,1000.8622 15,4 c -3.951301,-2.8605 -9.047451,-4.6803 -14.829406,-5.87657 l 0.829406,-9.12346 -2,0 -1,11.00003 z" id="path9745" style="color:#000000;fill:#ff9a2e;fill-opacity:1;stroke:none;stroke-width:1px;marker:none;visibility:visible;display:inline;overflow:visible;enable-background:accumulate"/><path d="m 66.051985,988.86217 c 12.106142,0 22,3 27,13.00003 l 0,10 -5,0 c -4,-7 -10,-10 -20,-10 l -3,0 z" id="path9743" style="color:#000000;fill:none;stroke:#1a3752;stroke-width:2;stroke-linecap:butt;stroke-linejoin:round;stroke-miterlimit:4;stroke-opacity:1;stroke-dasharray:none;stroke-dashoffset:0;marker:none;visibility:visible;display:inline;overflow:visible;enable-background:accumulate"/></g></svg>