<?xml version="1.0" ?><!DOCTYPE svg  PUBLIC '-//W3C//DTD SVG 1.1//EN'  'http://www.w3.org/Graphics/SVG/1.1/DTD/svg11.dtd'><svg enable-background="new 0 0 64 64" height="64px" id="Icons" version="1.1" viewBox="0 0 64 64" width="64px" xml:space="preserve" xmlns="http://www.w3.org/2000/svg" xmlns:xlink="http://www.w3.org/1999/xlink"><g id="page_quality_3_"><rect fill="#37474F" height="1" width="28" x="18" y="26.999"/><rect fill="#37474F" height="1" width="28" x="18" y="22.999"/><rect fill="#37474F" height="1" width="28" x="18" y="19"/><rect fill="#37474F" height="1" width="21" x="18" y="15"/><path d="M14,8h26v10h9.999H50v12h1V17.999l-11-11V7H13v23h1V8z M41,9.413L48.586,17H41V9.413z" fill="#37474F"/><path d="M24.328,38.068l-1.934-0.283l-0.871-1.764c-0.203-0.413-0.598-0.669-1.029-0.669s-0.826,0.256-1.029,0.669   l-0.872,1.764l-1.948,0.285c-0.444,0.059-0.813,0.353-0.95,0.765c-0.138,0.412-0.017,0.869,0.314,1.192l1.41,1.374l-0.333,1.94   c-0.062,0.363,0.026,0.705,0.247,0.967c0.21,0.247,0.518,0.39,0.846,0.39c0.198,0,0.394-0.051,0.579-0.15l1.735-0.912l1.742,0.915   c0.185,0.098,0.378,0.147,0.574,0.147c0.33,0,0.639-0.144,0.848-0.393c0.221-0.263,0.308-0.605,0.245-0.967L23.569,41.4   l1.409-1.373c0.331-0.323,0.452-0.78,0.314-1.192C25.156,38.422,24.786,38.129,24.328,38.068z M24.28,39.312l-1.785,1.74   l0.422,2.459c0.021,0.117-0.024,0.188-0.107,0.188c-0.031,0-0.068-0.011-0.109-0.032l-2.207-1.16l-2.206,1.16   c-0.04,0.021-0.077,0.032-0.108,0.032c-0.082,0-0.127-0.07-0.107-0.188l0.422-2.459l-1.786-1.74   c-0.118-0.115-0.08-0.23,0.082-0.252l2.468-0.36l1.104-2.235c0.037-0.074,0.085-0.111,0.133-0.111s0.096,0.037,0.133,0.111   l1.104,2.235l2.467,0.36C24.36,39.081,24.398,39.196,24.28,39.312z" fill="#37474F"/><path d="M47.316,38.068l-1.935-0.283l-0.871-1.764c-0.203-0.413-0.598-0.669-1.029-0.669s-0.826,0.256-1.029,0.669   l-0.872,1.764l-1.947,0.285c-0.444,0.059-0.813,0.352-0.951,0.764c-0.137,0.413-0.016,0.87,0.315,1.193l1.408,1.373l-0.332,1.941   c-0.063,0.358,0.024,0.701,0.245,0.964c0.209,0.249,0.518,0.393,0.847,0.393c0.198,0,0.392-0.05,0.577-0.148l1.739-0.914   l1.74,0.915c0.184,0.098,0.377,0.147,0.575,0.147c0.328,0,0.636-0.143,0.846-0.39c0.221-0.262,0.309-0.604,0.248-0.964   l-0.334-1.943l1.409-1.373c0.332-0.323,0.452-0.78,0.315-1.193C48.145,38.423,47.774,38.129,47.316,38.068z M47.269,39.312   l-1.787,1.74l0.423,2.459c0.02,0.117-0.025,0.188-0.107,0.188c-0.031,0-0.068-0.011-0.109-0.032l-2.206-1.16l-2.207,1.16   c-0.041,0.021-0.077,0.032-0.109,0.032c-0.082,0-0.127-0.07-0.106-0.188l0.421-2.459l-1.784-1.74   c-0.118-0.115-0.081-0.23,0.082-0.252l2.467-0.36l1.104-2.235c0.036-0.074,0.085-0.111,0.133-0.111s0.097,0.037,0.133,0.111   l1.104,2.235l2.468,0.36C47.348,39.081,47.387,39.196,47.269,39.312z" fill="#37474F"/><path d="M36.732,36.274l-2.539-0.37l-1.141-2.309c-0.214-0.435-0.611-0.695-1.062-0.695   c-0.449,0-0.846,0.26-1.062,0.693l-1.141,2.311l-2.547,0.371c-0.475,0.066-0.845,0.361-0.986,0.787   c-0.142,0.428-0.02,0.887,0.327,1.229l1.848,1.8l-0.436,2.538c-0.065,0.375,0.023,0.731,0.251,1.002   c0.214,0.254,0.529,0.399,0.866,0.399c0.206,0,0.409-0.053,0.604-0.156l2.274-1.195l2.279,1.197c0.188,0.102,0.393,0.154,0.6,0.154   c0.337,0,0.653-0.146,0.867-0.4c0.228-0.271,0.316-0.627,0.251-1.003l-0.436-2.536l1.843-1.795   c0.352-0.347,0.474-0.806,0.331-1.233C37.585,36.636,37.213,36.341,36.732,36.274z M36.698,37.579l-2.221,2.162l0.525,3.057   c0.025,0.146-0.031,0.232-0.133,0.232c-0.039,0-0.085-0.013-0.135-0.039l-2.744-1.442l-2.744,1.442   c-0.05,0.026-0.096,0.039-0.135,0.039c-0.102,0-0.157-0.086-0.132-0.232l0.524-3.057l-2.22-2.162   c-0.146-0.145-0.102-0.286,0.101-0.314l3.067-0.446l1.372-2.779c0.046-0.092,0.106-0.139,0.166-0.139s0.12,0.047,0.165,0.139   l1.373,2.779l3.065,0.446C36.799,37.293,36.845,37.435,36.698,37.579z" fill="#37474F"/><path d="M59,34.999h-5v1h3.523l-2.601,6.5l2.601,6.5H51v-2h2v-16H11v16h2V49l-6.523-0.001l2.601-6.5l-2.601-6.5H10   v-1H5l3,7.5L5,50h8v7h38v-7.001h8l-3-7.5L59,34.999z M50,56H14v-9.001h36V56z M12,45.999v-14h40v14H12z" fill="#37474F"/><path d="M59,34.999h-5v1h3.523l-2.601,6.5l2.601,6.5H51v-2h2v-16H11v16h2V49l-6.523-0.001l2.601-6.5l-2.601-6.5H10   v-1H5l3,7.5L5,50h8v7h38v-7.001h8l-3-7.5L59,34.999z M50,56H14v-9.001h36V56z M12,45.999v-14h40v14H12z" fill="#37474F"/></g></svg>