<?xml version="1.0" ?><!DOCTYPE svg  PUBLIC '-//W3C//DTD SVG 1.1//EN'  'http://www.w3.org/Graphics/SVG/1.1/DTD/svg11.dtd'><svg enable-background="new 0 0 64 64" height="64px" id="Icons" version="1.1" viewBox="0 0 64 64" width="64px" xml:space="preserve" xmlns="http://www.w3.org/2000/svg" xmlns:xlink="http://www.w3.org/1999/xlink"><g id="case_study_1_"><g><path d="M58,50.999H38v1H26v-1H6c-0.553,0-1,0.447-1,1s0.438,1.097,0.977,1.217l6.071,1.35    c1.078,0.239,2.848,0.434,3.952,0.434h32c1.104,0,2.874-0.194,3.952-0.434l6.071-1.35C58.563,53.096,59,52.552,59,51.999    S58.553,50.999,58,50.999z M57.807,52.239l-6.071,1.35c-1.001,0.223-2.712,0.41-3.735,0.41H16c-1.023,0-2.734-0.188-3.735-0.41    l-6.071-1.35C6.112,52.222,6,52.082,6,51.999h19v1h1h12h1v-1h19C58,52.082,57.888,52.222,57.807,52.239z" fill="#37474F"/><path d="M17,43.999h6v-5h-6V43.999z M18,39.999h4v3h-4V39.999z" fill="#37474F"/><path d="M25,34.999v9h6v-9H25z M30,42.999h-4v-7h4V42.999z" fill="#37474F"/><path d="M33,29.939c0.328,0.037,0.662,0.06,1,0.06v-1h4v0.05c0.344-0.173,0.677-0.367,1-0.585v-0.465h-6V29.939z" fill="#37474F"/><path d="M33,32.948v11.051h6V31.902c-0.327,0.152-0.661,0.285-1,0.406v10.69h-4v-10    C33.662,32.999,33.33,32.976,33,32.948z" fill="#37474F"/><path d="M41,26.619c0.048-0.06,0.104-0.111,0.15-0.172c0.326-0.428,0.607-0.879,0.85-1.346v-2.103h0.77    c0.076-0.329,0.131-0.663,0.168-1H41V26.619z" fill="#37474F"/><path d="M47,29.585v-7.586h-1.045c-0.028,0.337-0.072,0.669-0.128,1H46v5.586L47,29.585z" fill="#37474F"/><polygon fill="#37474F" points="41,32.413 41,43.999 47,43.999 47,38.413 46,37.413 46,42.999 42,42.999 42,33.413   "/><path d="M42.768,18.999c-0.077-0.342-0.178-0.675-0.293-1H25.525c-0.115,0.325-0.216,0.658-0.293,1H42.768z" fill="#37474F"/><path d="M10,18.999v13v14v2h44v-2v-2.691c-0.301,0.176-0.641,0.275-1,0.275v2.416v1H11v-1v-14v-13h11.181    c0.058-0.339,0.13-0.671,0.214-1H11C10.447,17.999,10,18.446,10,18.999z" fill="#37474F"/><path d="M53,35.585l1,1v-4.586v-13c0-0.553-0.447-1-1-1h-7.395c0.084,0.329,0.156,0.661,0.214,1H53v13V35.585z" fill="#37474F"/><path d="M41.479,15.999H26.521c-0.213,0.318-0.399,0.655-0.572,1h16.102    C41.878,16.654,41.691,16.317,41.479,15.999z" fill="#37474F"/><path d="M53,16.999c1.104,0,2,0.897,2,2v18.586l1,1V18.999c0-1.65-1.35-3-3-3h-8.105    c0.15,0.325,0.284,0.659,0.405,1H53z" fill="#37474F"/><path d="M56,41.413l-1,1v6.586H9v-30c0-1.103,0.896-2,2-2h11.7c0.121-0.341,0.255-0.675,0.405-1H11    c-1.65,0-3,1.35-3,3v31h48V41.413z" fill="#37474F"/><path d="M34,31.999c2.527,0,4.849-0.861,6.706-2.294l0.836,0.836c-0.196,0.377-0.15,0.85,0.165,1.165    l10.586,10.586c0.194,0.194,0.451,0.291,0.707,0.291s0.513-0.097,0.707-0.291l1.586-1.586c0.389-0.389,0.389-1.025,0-1.414    L44.707,28.706c-0.194-0.194-0.451-0.292-0.707-0.292c-0.159,0-0.313,0.052-0.458,0.127l-0.836-0.836    C44.139,25.848,45,23.526,45,20.999c0-6.075-4.925-11-11-11s-11,4.925-11,11S27.925,31.999,34,31.999z M54.586,39.999L53,41.585    L42.414,30.999l1.583-1.584c0.001-0.001,0.001-0.001,0.003-0.001v-0.001L54.586,39.999z M42.058,28.471l0.735,0.735l-0.586,0.586    l-0.735-0.735c0.003-0.003,0.006-0.006,0.009-0.01c0.196-0.182,0.386-0.371,0.568-0.566    C42.052,28.477,42.055,28.474,42.058,28.471z M34,10.999c5.522,0,10,4.478,10,10c0,2.278-0.771,4.373-2.055,6.056    c-0.543,0.711-1.179,1.346-1.891,1.889c-1.682,1.285-3.775,2.056-6.055,2.056c-5.522,0-10-4.478-10-10S28.478,10.999,34,10.999z" fill="#37474F"/></g></g></svg>